<?xml version='1.0' encoding='utf-8'?>
<svg xmlns:xlink="http://www.w3.org/1999/xlink" class="pygal-chart" id="chart-aee4b2ce-3435-4b9d-a520-499183b09f83" viewBox="0 0 800 600" xmlns="http://www.w3.org/2000/svg"><!--Generated with pygal 2.4.0 (etree) ©Kozea 2012-2016 on 2019-11-27--><!--http://pygal.org--><!--http://github.com/Kozea/pygal--><defs><style type="text/css">#chart-aee4b2ce-3435-4b9d-a520-499183b09f83{-webkit-user-select:none;-webkit-font-smoothing:antialiased;font-family:Consolas,"Liberation Mono",Menlo,Courier,monospace}#chart-aee4b2ce-3435-4b9d-a520-499183b09f83 .title{font-family:Consolas,"Liberation Mono",Menlo,Courier,monospace;font-size:16px}#chart-aee4b2ce-3435-4b9d-a520-499183b09f83 .legends .legend text{font-family:Consolas,"Liberation Mono",Menlo,Courier,monospace;font-size:14px}#chart-aee4b2ce-3435-4b9d-a520-499183b09f83 .axis text{font-family:Consolas,"Liberation Mono",Menlo,Courier,monospace;font-size:10px}#chart-aee4b2ce-3435-4b9d-a520-499183b09f83 .axis text.major{font-family:Consolas,"Liberation Mono",Menlo,Courier,monospace;font-size:10px}#chart-aee4b2ce-3435-4b9d-a520-499183b09f83 .text-overlay text.value{font-family:Consolas,"Liberation Mono",Menlo,Courier,monospace;font-size:16px}#chart-aee4b2ce-3435-4b9d-a520-499183b09f83 .text-overlay text.label{font-family:Consolas,"Liberation Mono",Menlo,Courier,monospace;font-size:10px}#chart-aee4b2ce-3435-4b9d-a520-499183b09f83 .tooltip{font-family:Consolas,"Liberation Mono",Menlo,Courier,monospace;font-size:14px}#chart-aee4b2ce-3435-4b9d-a520-499183b09f83 text.no_data{font-family:Consolas,"Liberation Mono",Menlo,Courier,monospace;font-size:64px}
#chart-aee4b2ce-3435-4b9d-a520-499183b09f83{background-color:rgba(249,249,249,1)}#chart-aee4b2ce-3435-4b9d-a520-499183b09f83 path,#chart-aee4b2ce-3435-4b9d-a520-499183b09f83 line,#chart-aee4b2ce-3435-4b9d-a520-499183b09f83 rect,#chart-aee4b2ce-3435-4b9d-a520-499183b09f83 circle{-webkit-transition:150ms;-moz-transition:150ms;transition:150ms}#chart-aee4b2ce-3435-4b9d-a520-499183b09f83 .graph &gt; .background{fill:rgba(249,249,249,1)}#chart-aee4b2ce-3435-4b9d-a520-499183b09f83 .plot &gt; .background{fill:rgba(255,255,255,1)}#chart-aee4b2ce-3435-4b9d-a520-499183b09f83 .graph{fill:rgba(0,0,0,.87)}#chart-aee4b2ce-3435-4b9d-a520-499183b09f83 text.no_data{fill:rgba(0,0,0,1)}#chart-aee4b2ce-3435-4b9d-a520-499183b09f83 .title{fill:rgba(0,0,0,1)}#chart-aee4b2ce-3435-4b9d-a520-499183b09f83 .legends .legend text{fill:rgba(0,0,0,.87)}#chart-aee4b2ce-3435-4b9d-a520-499183b09f83 .legends .legend:hover text{fill:rgba(0,0,0,1)}#chart-aee4b2ce-3435-4b9d-a520-499183b09f83 .axis .line{stroke:rgba(0,0,0,1)}#chart-aee4b2ce-3435-4b9d-a520-499183b09f83 .axis .guide.line{stroke:rgba(0,0,0,.54)}#chart-aee4b2ce-3435-4b9d-a520-499183b09f83 .axis .major.line{stroke:rgba(0,0,0,.87)}#chart-aee4b2ce-3435-4b9d-a520-499183b09f83 .axis text.major{fill:rgba(0,0,0,1)}#chart-aee4b2ce-3435-4b9d-a520-499183b09f83 .axis.y .guides:hover .guide.line,#chart-aee4b2ce-3435-4b9d-a520-499183b09f83 .line-graph .axis.x .guides:hover .guide.line,#chart-aee4b2ce-3435-4b9d-a520-499183b09f83 .stackedline-graph .axis.x .guides:hover .guide.line,#chart-aee4b2ce-3435-4b9d-a520-499183b09f83 .xy-graph .axis.x .guides:hover .guide.line{stroke:rgba(0,0,0,1)}#chart-aee4b2ce-3435-4b9d-a520-499183b09f83 .axis .guides:hover text{fill:rgba(0,0,0,1)}#chart-aee4b2ce-3435-4b9d-a520-499183b09f83 .reactive{fill-opacity:.7;stroke-opacity:.8}#chart-aee4b2ce-3435-4b9d-a520-499183b09f83 .ci{stroke:rgba(0,0,0,.87)}#chart-aee4b2ce-3435-4b9d-a520-499183b09f83 .reactive.active,#chart-aee4b2ce-3435-4b9d-a520-499183b09f83 .active .reactive{fill-opacity:.8;stroke-opacity:.9;stroke-width:4}#chart-aee4b2ce-3435-4b9d-a520-499183b09f83 .ci .reactive.active{stroke-width:1.5}#chart-aee4b2ce-3435-4b9d-a520-499183b09f83 .series text{fill:rgba(0,0,0,1)}#chart-aee4b2ce-3435-4b9d-a520-499183b09f83 .tooltip rect{fill:rgba(255,255,255,1);stroke:rgba(0,0,0,1);-webkit-transition:opacity 150ms;-moz-transition:opacity 150ms;transition:opacity 150ms}#chart-aee4b2ce-3435-4b9d-a520-499183b09f83 .tooltip .label{fill:rgba(0,0,0,.87)}#chart-aee4b2ce-3435-4b9d-a520-499183b09f83 .tooltip .label{fill:rgba(0,0,0,.87)}#chart-aee4b2ce-3435-4b9d-a520-499183b09f83 .tooltip .legend{font-size:.8em;fill:rgba(0,0,0,.54)}#chart-aee4b2ce-3435-4b9d-a520-499183b09f83 .tooltip .x_label{font-size:.6em;fill:rgba(0,0,0,1)}#chart-aee4b2ce-3435-4b9d-a520-499183b09f83 .tooltip .xlink{font-size:.5em;text-decoration:underline}#chart-aee4b2ce-3435-4b9d-a520-499183b09f83 .tooltip .value{font-size:1.5em}#chart-aee4b2ce-3435-4b9d-a520-499183b09f83 .bound{font-size:.5em}#chart-aee4b2ce-3435-4b9d-a520-499183b09f83 .max-value{font-size:.75em;fill:rgba(0,0,0,.54)}#chart-aee4b2ce-3435-4b9d-a520-499183b09f83 .map-element{fill:rgba(255,255,255,1);stroke:rgba(0,0,0,.54) !important}#chart-aee4b2ce-3435-4b9d-a520-499183b09f83 .map-element .reactive{fill-opacity:inherit;stroke-opacity:inherit}#chart-aee4b2ce-3435-4b9d-a520-499183b09f83 .color-0,#chart-aee4b2ce-3435-4b9d-a520-499183b09f83 .color-0 a:visited{stroke:#F44336;fill:#F44336}#chart-aee4b2ce-3435-4b9d-a520-499183b09f83 .text-overlay .color-0 text{fill:black}
#chart-aee4b2ce-3435-4b9d-a520-499183b09f83 text.no_data{text-anchor:middle}#chart-aee4b2ce-3435-4b9d-a520-499183b09f83 .guide.line{fill:none}#chart-aee4b2ce-3435-4b9d-a520-499183b09f83 .centered{text-anchor:middle}#chart-aee4b2ce-3435-4b9d-a520-499183b09f83 .title{text-anchor:middle}#chart-aee4b2ce-3435-4b9d-a520-499183b09f83 .legends .legend text{fill-opacity:1}#chart-aee4b2ce-3435-4b9d-a520-499183b09f83 .axis.x text{text-anchor:middle}#chart-aee4b2ce-3435-4b9d-a520-499183b09f83 .axis.x:not(.web) text[transform]{text-anchor:start}#chart-aee4b2ce-3435-4b9d-a520-499183b09f83 .axis.x:not(.web) text[transform].backwards{text-anchor:end}#chart-aee4b2ce-3435-4b9d-a520-499183b09f83 .axis.y text{text-anchor:end}#chart-aee4b2ce-3435-4b9d-a520-499183b09f83 .axis.y text[transform].backwards{text-anchor:start}#chart-aee4b2ce-3435-4b9d-a520-499183b09f83 .axis.y2 text{text-anchor:start}#chart-aee4b2ce-3435-4b9d-a520-499183b09f83 .axis.y2 text[transform].backwards{text-anchor:end}#chart-aee4b2ce-3435-4b9d-a520-499183b09f83 .axis .guide.line{stroke-dasharray:4,4}#chart-aee4b2ce-3435-4b9d-a520-499183b09f83 .axis .major.guide.line{stroke-dasharray:6,6}#chart-aee4b2ce-3435-4b9d-a520-499183b09f83 .horizontal .axis.y .guide.line,#chart-aee4b2ce-3435-4b9d-a520-499183b09f83 .horizontal .axis.y2 .guide.line,#chart-aee4b2ce-3435-4b9d-a520-499183b09f83 .vertical .axis.x .guide.line{opacity:0}#chart-aee4b2ce-3435-4b9d-a520-499183b09f83 .horizontal .axis.always_show .guide.line,#chart-aee4b2ce-3435-4b9d-a520-499183b09f83 .vertical .axis.always_show .guide.line{opacity:1 !important}#chart-aee4b2ce-3435-4b9d-a520-499183b09f83 .axis.y .guides:hover .guide.line,#chart-aee4b2ce-3435-4b9d-a520-499183b09f83 .axis.y2 .guides:hover .guide.line,#chart-aee4b2ce-3435-4b9d-a520-499183b09f83 .axis.x .guides:hover .guide.line{opacity:1}#chart-aee4b2ce-3435-4b9d-a520-499183b09f83 .axis .guides:hover text{opacity:1}#chart-aee4b2ce-3435-4b9d-a520-499183b09f83 .nofill{fill:none}#chart-aee4b2ce-3435-4b9d-a520-499183b09f83 .subtle-fill{fill-opacity:.2}#chart-aee4b2ce-3435-4b9d-a520-499183b09f83 .dot{stroke-width:1px;fill-opacity:1}#chart-aee4b2ce-3435-4b9d-a520-499183b09f83 .dot.active{stroke-width:5px}#chart-aee4b2ce-3435-4b9d-a520-499183b09f83 .dot.negative{fill:transparent}#chart-aee4b2ce-3435-4b9d-a520-499183b09f83 text,#chart-aee4b2ce-3435-4b9d-a520-499183b09f83 tspan{stroke:none !important}#chart-aee4b2ce-3435-4b9d-a520-499183b09f83 .series text.active{opacity:1}#chart-aee4b2ce-3435-4b9d-a520-499183b09f83 .tooltip rect{fill-opacity:.95;stroke-width:.5}#chart-aee4b2ce-3435-4b9d-a520-499183b09f83 .tooltip text{fill-opacity:1}#chart-aee4b2ce-3435-4b9d-a520-499183b09f83 .showable{visibility:hidden}#chart-aee4b2ce-3435-4b9d-a520-499183b09f83 .showable.shown{visibility:visible}#chart-aee4b2ce-3435-4b9d-a520-499183b09f83 .gauge-background{fill:rgba(229,229,229,1);stroke:none}#chart-aee4b2ce-3435-4b9d-a520-499183b09f83 .bg-lines{stroke:rgba(249,249,249,1);stroke-width:2px}</style><script type="text/javascript">window.pygal = window.pygal || {};window.pygal.config = window.pygal.config || {};window.pygal.config['aee4b2ce-3435-4b9d-a520-499183b09f83'] = {"allow_interruptions": false, "box_mode": "extremes", "classes": ["pygal-chart"], "css": ["file://style.css", "file://graph.css"], "defs": [], "disable_xml_declaration": false, "dots_size": 2.5, "dynamic_print_values": false, "explicit_size": false, "fill": false, "force_uri_protocol": "https", "formatter": null, "half_pie": false, "height": 600, "include_x_axis": false, "inner_radius": 0, "interpolate": "cubic", "interpolation_parameters": {}, "interpolation_precision": 250, "inverse_y_axis": false, "js": ["//kozea.github.io/pygal.js/2.0.x/pygal-tooltips.min.js"], "legend_at_bottom": false, "legend_at_bottom_columns": null, "legend_box_size": 12, "logarithmic": false, "margin": 20, "margin_bottom": null, "margin_left": null, "margin_right": null, "margin_top": null, "max_scale": 16, "min_scale": 4, "missing_value_fill_truncation": "x", "no_data_text": "No data", "no_prefix": false, "order_min": null, "pretty_print": false, "print_labels": true, "print_values": false, "print_values_position": "center", "print_zeroes": true, "range": null, "rounded_bars": null, "secondary_range": null, "show_dots": true, "show_legend": true, "show_minor_x_labels": true, "show_minor_y_labels": true, "show_only_major_dots": false, "show_x_guides": false, "show_x_labels": true, "show_y_guides": true, "show_y_labels": true, "spacing": 10, "stack_from_top": false, "strict": false, "stroke": true, "stroke_style": null, "style": {"background": "rgba(249, 249, 249, 1)", "ci_colors": [], "colors": ["#F44336", "#3F51B5", "#009688", "#FFC107", "#FF5722", "#9C27B0", "#03A9F4", "#8BC34A", "#FF9800", "#E91E63", "#2196F3", "#4CAF50", "#FFEB3B", "#673AB7", "#00BCD4", "#CDDC39", "#9E9E9E", "#607D8B"], "font_family": "Consolas, \"Liberation Mono\", Menlo, Courier, monospace", "foreground": "rgba(0, 0, 0, .87)", "foreground_strong": "rgba(0, 0, 0, 1)", "foreground_subtle": "rgba(0, 0, 0, .54)", "guide_stroke_dasharray": "4,4", "label_font_family": "Consolas, \"Liberation Mono\", Menlo, Courier, monospace", "label_font_size": 10, "legend_font_family": "Consolas, \"Liberation Mono\", Menlo, Courier, monospace", "legend_font_size": 14, "major_guide_stroke_dasharray": "6,6", "major_label_font_family": "Consolas, \"Liberation Mono\", Menlo, Courier, monospace", "major_label_font_size": 10, "no_data_font_family": "Consolas, \"Liberation Mono\", Menlo, Courier, monospace", "no_data_font_size": 64, "opacity": ".7", "opacity_hover": ".8", "plot_background": "rgba(255, 255, 255, 1)", "stroke_opacity": ".8", "stroke_opacity_hover": ".9", "title_font_family": "Consolas, \"Liberation Mono\", Menlo, Courier, monospace", "title_font_size": 16, "tooltip_font_family": "Consolas, \"Liberation Mono\", Menlo, Courier, monospace", "tooltip_font_size": 14, "transition": "150ms", "value_background": "rgba(229, 229, 229, 1)", "value_colors": [], "value_font_family": "Consolas, \"Liberation Mono\", Menlo, Courier, monospace", "value_font_size": 16, "value_label_font_family": "Consolas, \"Liberation Mono\", Menlo, Courier, monospace", "value_label_font_size": 10}, "title": "tagMac: 0x257699", "tooltip_border_radius": 0, "tooltip_fancy_mode": true, "truncate_label": null, "truncate_legend": null, "width": 800, "x_label_rotation": 0, "x_labels": null, "x_labels_major": null, "x_labels_major_count": null, "x_labels_major_every": null, "x_title": null, "xrange": null, "y_label_rotation": 0, "y_labels": null, "y_labels_major": null, "y_labels_major_count": null, "y_labels_major_every": null, "y_title": null, "zero": 0, "legends": ["22cd0394"]}</script><script type="text/javascript" xlink:href="https://kozea.github.io/pygal.js/2.0.x/pygal-tooltips.min.js" /></defs><title>tagMac: 0x257699</title><g class="graph line-graph vertical"><rect class="background" height="600" width="800" x="0" y="0" /><g class="plot" transform="translate(149, 46)"><rect class="background" height="534" width="630.8" x="0" y="0" /><g class="axis y always_show"><path class="line" d="M0.000000 534.000000 h630.800000" /><g class="guides"><path class="major guide line" d="M0.000000 523.730769 h630.800000" /><text class="major" x="-5" y="527.2307692307685">-75</text><title>-75</title></g><g class="guides"><path class="guide line" d="M0.000000 476.056175 h630.800000" /><text class="" x="-5" y="479.5561754433907">-74.8</text><title>-74.8</title></g><g class="guides"><path class="guide line" d="M0.000000 428.381582 h630.800000" /><text class="" x="-5" y="431.88158165601294">-74.6</text><title>-74.6</title></g><g class="guides"><path class="guide line" d="M0.000000 380.706988 h630.800000" /><text class="" x="-5" y="384.2069878686386">-74.4</text><title>-74.4</title></g><g class="guides"><path class="guide line" d="M0.000000 333.032394 h630.800000" /><text class="" x="-5" y="336.5323940812608">-74.2</text><title>-74.2</title></g><g class="guides"><path class="major guide line" d="M0.000000 285.357800 h630.800000" /><text class="major" x="-5" y="288.8578002938831">-74</text><title>-74</title></g><g class="guides"><path class="guide line" d="M0.000000 237.683207 h630.800000" /><text class="" x="-5" y="241.18320650650531">-73.8</text><title>-73.8</title></g><g class="guides"><path class="guide line" d="M0.000000 190.008613 h630.800000" /><text class="" x="-5" y="193.50861271912754">-73.6</text><title>-73.6</title></g><g class="guides"><path class="guide line" d="M0.000000 142.334019 h630.800000" /><text class="" x="-5" y="145.83401893175318">-73.4</text><title>-73.4</title></g><g class="guides"><path class="guide line" d="M0.000000 94.659425 h630.800000" /><text class="" x="-5" y="98.15942514437546">-73.2</text><title>-73.2</title></g><g class="guides"><path class="major guide line" d="M0.000000 46.984831 h630.800000" /><text class="major" x="-5" y="50.48483135699769">-73</text><title>-73</title></g></g><g class="series serie-0 color-0"><path class="line reactive nofill" d="M12.130769 285.357800 L12.737308 284.217018 13.343846 283.076254 13.950385 281.935526 14.556923 280.794852 15.163462 279.654250 15.770000 278.513738 16.376538 277.373334 16.983077 276.233055 17.589615 275.092921 18.196154 273.952948 18.802692 272.813155 19.409231 271.673559 20.015769 270.534180 20.622308 269.395034 21.228846 268.256140 21.835385 267.117516 22.441923 265.979179 23.048462 264.841148 23.655000 263.703441 24.261538 262.566075 24.868077 261.429069 25.474615 260.292441 26.081154 259.156208 26.687692 258.020388 27.294231 256.885000 27.900769 255.750062 28.507308 254.615591 29.113846 253.481606 29.720385 252.348124 30.326923 251.215163 30.933462 250.082742 31.540000 248.950878 32.146538 247.819590 32.753077 246.688895 33.359615 245.558811 33.966154 244.429357 34.572692 243.300549 35.179231 242.172408 35.785769 241.044949 36.392308 239.918191 36.998846 238.792153 37.605385 237.666852 38.211923 236.542306 38.818462 235.418534 39.425000 234.295552 40.031538 233.173380 40.638077 232.052034 41.244615 230.931534 41.851154 229.811897 42.457692 228.693140 43.064231 227.575283 43.670769 226.458343 44.277308 225.342337 44.883846 224.227285 45.490385 223.113204 46.096923 222.000111 46.703462 220.888025 47.310000 219.776965 47.916538 218.666947 48.523077 217.557990 49.129615 216.450111 49.736154 215.343330 50.342692 214.237663 50.949231 213.133129 51.555769 212.029746 52.162308 210.927531 52.768846 209.826504 53.375385 208.726680 53.981923 207.628080 54.588462 206.530720 55.195000 205.434619 55.801538 204.339794 56.408077 203.246264 57.014615 202.154046 57.621154 201.063159 58.227692 199.973621 58.834231 198.885449 59.440769 197.798661 60.047308 196.713276 60.653846 195.629311 61.260385 194.546785 61.866923 193.465715 62.473462 192.386119 63.080000 191.308016 63.686538 190.231423 64.293077 189.156359 64.899615 188.082841 65.506154 187.010887 66.112692 185.940515 66.719231 184.871743 67.325769 183.804590 67.932308 182.739073 68.538846 181.675210 69.145385 180.613019 69.751923 179.552519 70.358462 178.493726 70.965000 177.436660 71.571538 176.381337 72.178077 175.327777 72.784615 174.275997 73.391154 173.226015 73.997692 172.177848 74.604231 171.131516 75.210769 170.087036 75.817308 169.044425 76.423846 168.003703 77.030385 166.964886 77.636923 165.927993 78.243462 164.893043 78.850000 163.860052 79.456538 162.829038 80.063077 161.800021 80.669615 160.773017 81.276154 159.748045 81.882692 158.725123 82.489231 157.704269 83.095769 156.685500 83.702308 155.668835 84.308846 154.654292 84.915385 153.641888 85.521923 152.631642 86.128462 151.623571 86.735000 150.617694 87.341538 149.614029 87.948077 148.612593 88.554615 147.613404 89.161154 146.616481 89.767692 145.621842 90.374231 144.629504 90.980769 143.639486 91.587308 142.651804 92.193846 141.666479 92.800385 140.683526 93.406923 139.702965 94.013462 138.724814 94.620000 137.749089 95.226538 136.775810 95.833077 135.804995 96.439615 134.836660 97.046154 133.870825 97.652692 132.907507 98.259231 131.946724 98.865769 130.988495 99.472308 130.032836 100.078846 129.079767 100.685385 128.129305 101.291923 127.181467 101.898462 126.236273 102.505000 125.293740 103.111538 124.353886 103.718077 123.416729 104.324615 122.482288 104.931154 121.550579 105.537692 120.621621 106.144231 119.695432 106.750769 118.772029 107.357308 117.851432 107.963846 116.933658 108.570385 116.018724 109.176923 115.106650 109.783462 114.197452 110.390000 113.291149 110.996538 112.387759 111.603077 111.487299 112.209615 110.589788 112.816154 109.695244 113.422692 108.803685 114.029231 107.915129 114.635769 107.029593 115.242308 106.147095 115.848846 105.267655 116.455385 104.391288 117.061923 103.518015 117.668462 102.647852 118.275000 101.780818 118.881538 100.916930 119.488077 100.056206 120.094615 99.198665 120.701154 98.344325 121.307692 97.493203 121.914231 96.645317 122.520769 95.800686 123.127308 94.959327 123.733846 94.121259 124.340385 93.286499 124.946923 92.455065 125.553462 91.626976 126.160000 90.802249 126.766538 89.980902 127.373077 89.162953 127.979615 88.348421 128.586154 87.537322 129.192692 86.729676 129.799231 85.925501 130.405769 85.124813 131.012308 84.327631 131.618846 83.533974 132.225385 82.743858 132.831923 81.957303 133.438462 81.174326 134.045000 80.394944 134.651538 79.619177 135.258077 78.847042 135.864615 78.078557 136.471154 77.313739 137.077692 76.552608 137.684231 75.795180 138.290769 75.041475 138.897308 74.291509 139.503846 73.545301 140.110385 72.802869 140.716923 72.064231 141.323462 71.329404 141.930000 70.598407 142.536538 69.871258 143.143077 69.147975 143.749615 68.428576 144.356154 67.713078 144.962692 67.001500 145.569231 66.293859 146.175769 65.590174 146.782308 64.890463 147.388846 64.194743 147.995385 63.503033 148.601923 62.815350 149.208462 62.131713 149.815000 61.452140 150.421538 60.776648 151.028077 60.105255 151.634615 59.437980 152.241154 58.774840 152.847692 58.115854 153.454231 57.461039 154.060769 56.810414 154.667308 56.163995 155.273846 55.521803 155.880385 54.883853 156.486923 54.250165 157.093462 53.620756 157.700000 52.995644 158.306538 52.374848 158.913077 51.758384 159.519615 51.146272 160.126154 50.538529 160.732692 49.935174 161.339231 49.336223 161.945769 48.741695 162.552308 48.151609 163.158846 47.565982 163.765385 46.984831 164.371923 46.408173 164.978462 45.836012 165.585000 45.268349 166.191538 44.705186 166.798077 44.146524 167.404615 43.592366 168.011154 43.042713 168.617692 42.497566 169.224231 41.956927 169.830769 41.420798 170.437308 40.889180 171.043846 40.362075 171.650385 39.839485 172.256923 39.321411 172.863462 38.807855 173.470000 38.298819 174.076538 37.794304 174.683077 37.294311 175.289615 36.798844 175.896154 36.307902 176.502692 35.821488 177.109231 35.339603 177.715769 34.862249 178.322308 34.389428 178.928846 33.921141 179.535385 33.457390 180.141923 32.998177 180.748462 32.543503 181.355000 32.093369 181.961538 31.647778 182.568077 31.206731 183.174615 30.770230 183.781154 30.338276 184.387692 29.910871 184.994231 29.488017 185.600769 29.069715 186.207308 28.655967 186.813846 28.246774 187.420385 27.842139 188.026923 27.442062 188.633462 27.046546 189.240000 26.655591 189.846538 26.269201 190.453077 25.887375 191.059615 25.510117 191.666154 25.137427 192.272692 24.769308 192.879231 24.405760 193.485769 24.046786 194.092308 23.692387 194.698846 23.342565 195.305385 22.997321 195.911923 22.656657 196.518462 22.320575 197.125000 21.989076 197.731538 21.662162 198.338077 21.339835 198.944615 21.022095 199.551154 20.708946 200.157692 20.400388 200.764231 20.096423 201.370769 19.797053 201.977308 19.502280 202.583846 19.212104 203.190385 18.926528 203.796923 18.645553 204.403462 18.369182 205.010000 18.097414 205.616538 17.830253 206.223077 17.567700 206.829615 17.309756 207.436154 17.056423 208.042692 16.807704 208.649231 16.563598 209.255769 16.324108 209.862308 16.089236 210.468846 15.858983 211.075385 15.633352 211.681923 15.412342 212.288462 15.195957 212.895000 14.984198 213.501538 14.777066 214.108077 14.574563 214.714615 14.376691 215.321154 14.183451 215.927692 13.994845 216.534231 13.810875 217.140769 13.631542 217.747308 13.456848 218.353846 13.286794 218.960385 13.121382 219.566923 12.960615 220.173462 12.804492 220.780000 12.653017 221.386538 12.506191 221.993077 12.364014 222.599615 12.226490 223.206154 12.093619 223.812692 11.965404 224.419231 11.841845 225.025769 11.722945 225.632308 11.608705 226.238846 11.499127 226.845385 11.394212 227.451923 11.293962 228.058462 11.198379 228.665000 11.107464 229.271538 11.021219 229.878077 10.939645 230.484615 10.862745 231.091154 10.790520 231.697692 10.722971 232.304231 10.660100 232.910769 10.601909 233.517308 10.548399 234.123846 10.499573 234.730385 10.455431 235.336923 10.415975 235.943462 10.381207 236.550000 10.351129 237.156538 10.325742 237.763077 10.305047 238.369615 10.289047 238.976154 10.277744 239.582692 10.271137 240.189231 10.269231 240.795769 10.272025 241.402308 10.279522 242.008846 10.291723 242.615385 10.308630 243.221923 10.330245 243.828462 10.356568 244.435000 10.387603 245.041538 10.423350 245.648077 10.463811 246.254615 10.508988 246.861154 10.558882 247.467692 10.613495 248.074231 10.672828 248.680769 10.736884 249.287308 10.805664 249.893846 10.879169 250.500385 10.957402 251.106923 11.040363 251.713462 11.128054 252.320000 11.220478 252.926538 11.317635 253.533077 11.419528 254.139615 11.526157 254.746154 11.637525 255.352692 11.753634 255.959231 11.874484 256.565769 12.000078 257.172308 12.130416 257.778846 12.265502 258.385385 12.405336 258.991923 12.549920 259.598462 12.699255 260.205000 12.853344 260.811538 13.012188 261.418077 13.175789 262.024615 13.344147 262.631154 13.517266 263.237692 13.695146 263.844231 13.877789 264.450769 14.065196 265.057308 14.257370 265.663846 14.454313 266.270385 14.656024 266.876923 14.862507 267.483462 15.073763 268.090000 15.289794 268.696538 15.510600 269.303077 15.736185 269.909615 15.966549 270.516154 16.201694 271.122692 16.441621 271.729231 16.686334 272.335769 16.935832 272.942308 17.190117 273.548846 17.449192 274.155385 17.713058 274.761923 17.981716 275.368462 18.255169 275.975000 18.533417 276.581538 18.816463 277.188077 19.104307 277.794615 19.396953 278.401154 19.694401 279.007692 19.996652 279.614231 20.303710 280.220769 20.615574 280.827308 20.932248 281.433846 21.253732 282.040385 21.580028 282.646923 21.911138 283.253462 22.247063 283.860000 22.587805 284.466538 22.933366 285.073077 23.283748 285.679615 23.638951 286.286154 23.998978 286.892692 24.363830 287.499231 24.733509 288.105769 25.108016 288.712308 25.487353 289.318846 25.871523 289.925385 26.260525 290.531923 26.654363 291.138462 27.053037 291.745000 27.456550 292.351538 27.864902 292.958077 28.278096 293.564615 28.696134 294.171154 29.119016 294.777692 29.546744 295.384231 29.979321 295.990769 30.416747 296.597308 30.859025 297.203846 31.306156 297.810385 31.758141 298.416923 32.214983 299.023462 32.676682 299.630000 33.143242 300.236538 33.614662 300.843077 34.090945 301.449615 34.572092 302.056154 35.058106 302.662692 35.548987 303.269231 36.044738 303.875769 36.545360 304.482308 37.050854 305.088846 37.561222 305.695385 38.076467 306.301923 38.596589 306.908462 39.121590 307.515000 39.651472 308.121538 40.186236 308.728077 40.725884 309.334615 41.270418 309.941154 41.819840 310.547692 42.374150 311.154231 42.933351 311.760769 43.497444 312.367308 44.066431 312.973846 44.640314 313.580385 45.219093 314.186923 45.802772 314.793462 46.391350 315.400000 46.984831 316.006538 47.583212 316.613077 48.186471 317.219615 48.794585 317.826154 49.407529 318.432692 50.025279 319.039231 50.647809 319.645769 51.275097 320.252308 51.907116 320.858846 52.543843 321.465385 53.185253 322.071923 53.831321 322.678462 54.482024 323.285000 55.137335 323.891538 55.797232 324.498077 56.461689 325.104615 57.130682 325.711154 57.804187 326.317692 58.482178 326.924231 59.164632 327.530769 59.851523 328.137308 60.542828 328.743846 61.238521 329.350385 61.938579 329.956923 62.642977 330.563462 63.351690 331.170000 64.064693 331.776538 64.781963 332.383077 65.503474 332.989615 66.229203 333.596154 66.959124 334.202692 67.693213 334.809231 68.431446 335.415769 69.173798 336.022308 69.920245 336.628846 70.670761 337.235385 71.425324 337.841923 72.183907 338.448462 72.946486 339.055000 73.713038 339.661538 74.483537 340.268077 75.257959 340.874615 76.036280 341.481154 76.818474 342.087692 77.604518 342.694231 78.394386 343.300769 79.188055 343.907308 79.985500 344.513846 80.786696 345.120385 81.591619 345.726923 82.400244 346.333462 83.212547 346.940000 84.028503 347.546538 84.848088 348.153077 85.671277 348.759615 86.498045 349.366154 87.328369 349.972692 88.162224 350.579231 88.999585 351.185769 89.840427 351.792308 90.684726 352.398846 91.532458 353.005385 92.383598 353.611923 93.238122 354.218462 94.096004 354.825000 94.957221 355.431538 95.821748 356.038077 96.689561 356.644615 97.560634 357.251154 98.434944 357.857692 99.312465 358.464231 100.193175 359.070769 101.077047 359.677308 101.964057 360.283846 102.854181 360.890385 103.747395 361.496923 104.643673 362.103462 105.542991 362.710000 106.445326 363.316538 107.350651 363.923077 108.258944 364.529615 109.170178 365.136154 110.084330 365.742692 111.001376 366.349231 111.921290 366.955769 112.844048 367.562308 113.769625 368.168846 114.697998 368.775385 115.629142 369.381923 116.563031 369.988462 117.499642 370.595000 118.438950 371.201538 119.380930 371.808077 120.325559 372.414615 121.272811 373.021154 122.222662 373.627692 123.175087 374.234231 124.130062 374.840769 125.087563 375.447308 126.047565 376.053846 127.010042 376.660385 127.974972 377.266923 128.942329 377.873462 129.912089 378.480000 130.884227 379.086538 131.858719 379.693077 132.835540 380.299615 133.814666 380.906154 134.796072 381.512692 135.779733 382.119231 136.765626 382.725769 137.753726 383.332308 138.744008 383.938846 139.736447 384.545385 140.731019 385.151923 141.727700 385.758462 142.726465 386.365000 143.727290 386.971538 144.730149 387.578077 145.735020 388.184615 146.741876 388.791154 147.750693 389.397692 148.761448 390.004231 149.774115 390.610769 150.788670 391.217308 151.805088 391.823846 152.823345 392.430385 153.843416 393.036923 154.865278 393.643462 155.888904 394.250000 156.914272 394.856538 157.941356 395.463077 158.970131 396.069615 160.000574 396.676154 161.032659 397.282692 162.066363 397.889231 163.101660 398.495769 164.138527 399.102308 165.176938 399.708846 166.216870 400.315385 167.258297 400.921923 168.301195 401.528462 169.345539 402.135000 170.391306 402.741538 171.438470 403.348077 172.487008 403.954615 173.536893 404.561154 174.588103 405.167692 175.640613 405.774231 176.694397 406.380769 177.749431 406.987308 178.805692 407.593846 179.863154 408.200385 180.921793 408.806923 181.981584 409.413462 183.042503 410.020000 184.104526 410.626538 185.167627 411.233077 186.231782 411.839615 187.296968 412.446154 188.363158 413.052692 189.430329 413.659231 190.498457 414.265769 191.567516 414.872308 192.637482 415.478846 193.708331 416.085385 194.780039 416.691923 195.852579 417.298462 196.925929 417.905000 198.000064 418.511538 199.074958 419.118077 200.150588 419.724615 201.226930 420.331154 202.303957 420.937692 203.381647 421.544231 204.459974 422.150769 205.538914 422.757308 206.618443 423.363846 207.698535 423.970385 208.779167 424.576923 209.860314 425.183462 210.941951 425.790000 212.024054 426.396538 213.106598 427.003077 214.189559 427.609615 215.272912 428.216154 216.356634 428.822692 217.440698 429.429231 218.525081 430.035769 219.609758 430.642308 220.694706 431.248846 221.779898 431.855385 222.865311 432.461923 223.950920 433.068462 225.036701 433.675000 226.122628 434.281538 227.208679 434.888077 228.294827 435.494615 229.381049 436.101154 230.467320 436.707692 231.553616 437.314231 232.639911 437.920769 233.726183 438.527308 234.812405 439.133846 235.898553 439.740385 236.984603 440.346923 238.070531 440.953462 239.156312 441.560000 240.241921 442.166538 241.327334 442.773077 242.412526 443.379615 243.497473 443.986154 244.582151 444.592692 245.666534 445.199231 246.750598 445.805769 247.834319 446.412308 248.917673 447.018846 250.000634 447.625385 251.083178 448.231923 252.165281 448.838462 253.246918 449.445000 254.328065 450.051538 255.408697 450.658077 256.488789 451.264615 257.568318 451.871154 258.647258 452.477692 259.725585 453.084231 260.803275 453.690769 261.880302 454.297308 262.956643 454.903846 264.032273 455.510385 265.107168 456.116923 266.181302 456.723462 267.254652 457.330000 268.327193 457.936538 269.398900 458.543077 270.469749 459.149615 271.539716 459.756154 272.608775 460.362692 273.676902 460.969231 274.744074 461.575769 275.810264 462.182308 276.875449 462.788846 277.939605 463.395385 279.002706 464.001923 280.064729 464.608462 281.125648 465.215000 282.185439 465.821538 283.244078 466.428077 284.301540 467.034615 285.357800 467.641154 286.412840 468.247692 287.466658 468.854231 288.519261 469.460769 289.570652 470.067308 290.620837 470.673846 291.669821 471.280385 292.717608 471.886923 293.764203 472.493462 294.809612 473.100000 295.853839 473.706538 296.896889 474.313077 297.938767 474.919615 298.979478 475.526154 300.019027 476.132692 301.057419 476.739231 302.094658 477.345769 303.130750 477.952308 304.165699 478.558846 305.199510 479.165385 306.232189 479.771923 307.263740 480.378462 308.294168 480.985000 309.323478 481.591538 310.351675 482.198077 311.378764 482.804615 312.404749 483.411154 313.429636 484.017692 314.453429 484.624231 315.476134 485.230769 316.497755 485.837308 317.518297 486.443846 318.537766 487.050385 319.556165 487.656923 320.573500 488.263462 321.589776 488.870000 322.604998 489.476538 323.619171 490.083077 324.632298 490.689615 325.644387 491.296154 326.655440 491.902692 327.665464 492.509231 328.674463 493.115769 329.682442 493.722308 330.689406 494.328846 331.695360 494.935385 332.700309 495.541923 333.704257 496.148462 334.707210 496.755000 335.709172 497.361538 336.710148 497.968077 337.710144 498.574615 338.709164 499.181154 339.707213 499.787692 340.704297 500.394231 341.700418 501.000769 342.695584 501.607308 343.689799 502.213846 344.683067 502.820385 345.675393 503.426923 346.666783 504.033462 347.657241 504.640000 348.646773 505.246538 349.635382 505.853077 350.623075 506.459615 351.609855 507.066154 352.595728 507.672692 353.580699 508.279231 354.564773 508.885769 355.547954 509.492308 356.530248 510.098846 357.511659 510.705385 358.492192 511.311923 359.471852 511.918462 360.450645 512.525000 361.428574 513.131538 362.405645 513.738077 363.381863 514.344615 364.357233 514.951154 365.331759 515.557692 366.305447 516.164231 367.278301 516.770769 368.250326 517.377308 369.221527 517.983846 370.191910 518.590385 371.161479 519.196923 372.130238 519.803462 373.098193 520.410000 374.065349 521.016538 375.031711 521.623077 375.997283 522.229615 376.962070 522.836154 377.926078 523.442692 378.889311 524.049231 379.851774 524.655769 380.813472 525.262308 381.774411 525.868846 382.734594 526.475385 383.694026 527.081923 384.652714 527.688462 385.610660 528.295000 386.567872 528.901538 387.524352 529.508077 388.480107 530.114615 389.435141 530.721154 390.389459 531.327692 391.343067 531.934231 392.295968 532.540769 393.248167 533.147308 394.199671 533.753846 395.150483 534.360385 396.100608 534.966923 397.050052 535.573462 397.998819 536.180000 398.946915 536.786538 399.894343 537.393077 400.841110 537.999615 401.787219 538.606154 402.732676 539.212692 403.677486 539.819231 404.621654 540.425769 405.565184 541.032308 406.508081 541.638846 407.450351 542.245385 408.391998 542.851923 409.333027 543.458462 410.273444 544.065000 411.213252 544.671538 412.152457 545.278077 413.091064 545.884615 414.029077 546.491154 414.966502 547.097692 415.903344 547.704231 416.839606 548.310769 417.775295 548.917308 418.710416 549.523846 419.644972 550.130385 420.578969 550.736923 421.512413 551.343462 422.445307 551.950000 423.377656 552.556538 424.309467 553.163077 425.240742 553.769615 426.171489 554.376154 427.101710 554.982692 428.031412 555.589231 428.960599 556.195769 429.889275 556.802308 430.817447 557.408846 431.745119 558.015385 432.672295 558.621923 433.598981 559.228462 434.525182 559.835000 435.450901 560.441538 436.376146 561.048077 437.300919 561.654615 438.225227 562.261154 439.149074 562.867692 440.072464 563.474231 440.995404 564.080769 441.917897 564.687308 442.839949 565.293846 443.761565 565.900385 444.682749 566.506923 445.603506 567.113462 446.523842 567.720000 447.443761 568.326538 448.363268 568.933077 449.282368 569.539615 450.201066 570.146154 451.119366 570.752692 452.037275 571.359231 452.954796 571.965769 453.871934 572.572308 454.788695 573.178846 455.705083 573.785385 456.621104 574.391923 457.536761 574.998462 458.452061 575.605000 459.367007 576.211538 460.281606 576.818077 461.195861 577.424615 462.109778 578.031154 463.023361 578.637692 463.936616 579.244231 464.849547 579.850769 465.762159 580.457308 466.674458 581.063846 467.586448 581.670385 468.498133 582.276923 469.409520 582.883462 470.320612 583.490000 471.231415 584.096538 472.141934 584.703077 473.052173 585.309615 473.962137 585.916154 474.871832 586.522692 475.781262 587.129231 476.690432 587.735769 477.599347 588.342308 478.508012 588.948846 479.416431 589.555385 480.324611 590.161923 481.232555 590.768462 482.140269 591.375000 483.047757 591.981538 483.955024 592.588077 484.862076 593.194615 485.768917 593.801154 486.675551 594.407692 487.581985 595.014231 488.488223 595.620769 489.394269 596.227308 490.300129 596.833846 491.205808 597.440385 492.111310 598.046923 493.016640 598.653462 493.921804 599.260000 494.826806 599.866538 495.731651 600.473077 496.636344 601.079615 497.540890 601.686154 498.445294 602.292692 499.349560 602.899231 500.253694 603.505769 501.157700 604.112308 502.061584 604.718846 502.965350 605.325385 503.869004 605.931923 504.772549 606.538462 505.675992 607.145000 506.579336 607.751538 507.482588 608.358077 508.385751 608.964615 509.288830 609.571154 510.191832 610.177692 511.094759 610.784231 511.997618 611.390769 512.900414 611.997308 513.803150 612.603846 514.705832 613.210385 515.608466 613.816923 516.511055 614.423462 517.413605 615.030000 518.316121 615.636538 519.218607 616.243077 520.121069 616.849615 521.023511 617.456154 521.925939 618.062692 522.828356 618.669231 523.730769" /></g></g><g class="titles"><text class="title plot_title" x="400.0" y="26">tagMac: 0x257699</text></g><g class="plot overlay" transform="translate(149, 46)"><g class="series serie-0 color-0"><g class="dots"><circle class="dot reactive tooltip-trigger" cx="12.13076923076923" cy="285.3578002938831" r="2.5" /><desc class="value">-74</desc><desc class="x top">12.13076923076923</desc><desc class="y top">285.3578002938831</desc></g><g class="dots"><circle class="dot reactive tooltip-trigger" cx="163.76538461538462" cy="46.98483135699769" r="2.5" /><desc class="value">-73</desc><desc class="x ">163.76538461538462</desc><desc class="y ">46.98483135699769</desc></g><g class="dots"><circle class="dot reactive tooltip-trigger" cx="315.4" cy="46.98483135699769" r="2.5" /><desc class="value">-73</desc><desc class="x ">315.4</desc><desc class="y ">46.98483135699769</desc></g><g class="dots"><circle class="dot reactive tooltip-trigger" cx="467.03461538461534" cy="285.3578002938831" r="2.5" /><desc class="value">-74</desc><desc class="x left top">467.03461538461534</desc><desc class="y left top">285.3578002938831</desc></g><g class="dots"><circle class="dot reactive tooltip-trigger" cx="618.6692307692307" cy="523.7307692307685" r="2.5" /><desc class="value">-75</desc><desc class="x left top">618.6692307692307</desc><desc class="y left top">523.7307692307685</desc></g></g></g><g class="plot text-overlay" transform="translate(149, 46)"><g class="series serie-0 color-0" /></g><g class="plot tooltip-overlay" transform="translate(149, 46)"><g class="tooltip" style="opacity: 0" transform="translate(0 0)"><rect class="tooltip-box" height="0" rx="0" ry="0" width="0" /><g class="text" /></g></g><g class="legends" transform="translate(10, 56)"><g class="legend reactive activate-serie" id="activate-serie-0"><rect class="color-0 reactive" height="12" width="12" x="0.0" y="1.0" /><text x="17.0" y="11.2">22cd0394</text></g></g><g class="legends" transform="translate(790, 56)" /></g></svg>