<?xml version='1.0' encoding='utf-8'?>
<svg xmlns="http://www.w3.org/2000/svg" xmlns:xlink="http://www.w3.org/1999/xlink" id="chart-30f61851-0770-4657-899e-0cba32d00897" class="pygal-chart" viewBox="0 0 800 600"><!--Generated with pygal 2.4.0 (lxml) ©Kozea 2012-2016 on 2019-11-27--><!--http://pygal.org--><!--http://github.com/Kozea/pygal--><defs><style type="text/css">#chart-30f61851-0770-4657-899e-0cba32d00897{-webkit-user-select:none;-webkit-font-smoothing:antialiased;font-family:Consolas,"Liberation Mono",Menlo,Courier,monospace}#chart-30f61851-0770-4657-899e-0cba32d00897 .title{font-family:Consolas,"Liberation Mono",Menlo,Courier,monospace;font-size:16px}#chart-30f61851-0770-4657-899e-0cba32d00897 .legends .legend text{font-family:Consolas,"Liberation Mono",Menlo,Courier,monospace;font-size:14px}#chart-30f61851-0770-4657-899e-0cba32d00897 .axis text{font-family:Consolas,"Liberation Mono",Menlo,Courier,monospace;font-size:10px}#chart-30f61851-0770-4657-899e-0cba32d00897 .axis text.major{font-family:Consolas,"Liberation Mono",Menlo,Courier,monospace;font-size:10px}#chart-30f61851-0770-4657-899e-0cba32d00897 .text-overlay text.value{font-family:Consolas,"Liberation Mono",Menlo,Courier,monospace;font-size:16px}#chart-30f61851-0770-4657-899e-0cba32d00897 .text-overlay text.label{font-family:Consolas,"Liberation Mono",Menlo,Courier,monospace;font-size:10px}#chart-30f61851-0770-4657-899e-0cba32d00897 .tooltip{font-family:Consolas,"Liberation Mono",Menlo,Courier,monospace;font-size:14px}#chart-30f61851-0770-4657-899e-0cba32d00897 text.no_data{font-family:Consolas,"Liberation Mono",Menlo,Courier,monospace;font-size:64px}
#chart-30f61851-0770-4657-899e-0cba32d00897{background-color:rgba(249,249,249,1)}#chart-30f61851-0770-4657-899e-0cba32d00897 path,#chart-30f61851-0770-4657-899e-0cba32d00897 line,#chart-30f61851-0770-4657-899e-0cba32d00897 rect,#chart-30f61851-0770-4657-899e-0cba32d00897 circle{-webkit-transition:150ms;-moz-transition:150ms;transition:150ms}#chart-30f61851-0770-4657-899e-0cba32d00897 .graph &gt; .background{fill:rgba(249,249,249,1)}#chart-30f61851-0770-4657-899e-0cba32d00897 .plot &gt; .background{fill:rgba(255,255,255,1)}#chart-30f61851-0770-4657-899e-0cba32d00897 .graph{fill:rgba(0,0,0,.87)}#chart-30f61851-0770-4657-899e-0cba32d00897 text.no_data{fill:rgba(0,0,0,1)}#chart-30f61851-0770-4657-899e-0cba32d00897 .title{fill:rgba(0,0,0,1)}#chart-30f61851-0770-4657-899e-0cba32d00897 .legends .legend text{fill:rgba(0,0,0,.87)}#chart-30f61851-0770-4657-899e-0cba32d00897 .legends .legend:hover text{fill:rgba(0,0,0,1)}#chart-30f61851-0770-4657-899e-0cba32d00897 .axis .line{stroke:rgba(0,0,0,1)}#chart-30f61851-0770-4657-899e-0cba32d00897 .axis .guide.line{stroke:rgba(0,0,0,.54)}#chart-30f61851-0770-4657-899e-0cba32d00897 .axis .major.line{stroke:rgba(0,0,0,.87)}#chart-30f61851-0770-4657-899e-0cba32d00897 .axis text.major{fill:rgba(0,0,0,1)}#chart-30f61851-0770-4657-899e-0cba32d00897 .axis.y .guides:hover .guide.line,#chart-30f61851-0770-4657-899e-0cba32d00897 .line-graph .axis.x .guides:hover .guide.line,#chart-30f61851-0770-4657-899e-0cba32d00897 .stackedline-graph .axis.x .guides:hover .guide.line,#chart-30f61851-0770-4657-899e-0cba32d00897 .xy-graph .axis.x .guides:hover .guide.line{stroke:rgba(0,0,0,1)}#chart-30f61851-0770-4657-899e-0cba32d00897 .axis .guides:hover text{fill:rgba(0,0,0,1)}#chart-30f61851-0770-4657-899e-0cba32d00897 .reactive{fill-opacity:.7;stroke-opacity:.8}#chart-30f61851-0770-4657-899e-0cba32d00897 .ci{stroke:rgba(0,0,0,.87)}#chart-30f61851-0770-4657-899e-0cba32d00897 .reactive.active,#chart-30f61851-0770-4657-899e-0cba32d00897 .active .reactive{fill-opacity:.8;stroke-opacity:.9;stroke-width:4}#chart-30f61851-0770-4657-899e-0cba32d00897 .ci .reactive.active{stroke-width:1.5}#chart-30f61851-0770-4657-899e-0cba32d00897 .series text{fill:rgba(0,0,0,1)}#chart-30f61851-0770-4657-899e-0cba32d00897 .tooltip rect{fill:rgba(255,255,255,1);stroke:rgba(0,0,0,1);-webkit-transition:opacity 150ms;-moz-transition:opacity 150ms;transition:opacity 150ms}#chart-30f61851-0770-4657-899e-0cba32d00897 .tooltip .label{fill:rgba(0,0,0,.87)}#chart-30f61851-0770-4657-899e-0cba32d00897 .tooltip .label{fill:rgba(0,0,0,.87)}#chart-30f61851-0770-4657-899e-0cba32d00897 .tooltip .legend{font-size:.8em;fill:rgba(0,0,0,.54)}#chart-30f61851-0770-4657-899e-0cba32d00897 .tooltip .x_label{font-size:.6em;fill:rgba(0,0,0,1)}#chart-30f61851-0770-4657-899e-0cba32d00897 .tooltip .xlink{font-size:.5em;text-decoration:underline}#chart-30f61851-0770-4657-899e-0cba32d00897 .tooltip .value{font-size:1.5em}#chart-30f61851-0770-4657-899e-0cba32d00897 .bound{font-size:.5em}#chart-30f61851-0770-4657-899e-0cba32d00897 .max-value{font-size:.75em;fill:rgba(0,0,0,.54)}#chart-30f61851-0770-4657-899e-0cba32d00897 .map-element{fill:rgba(255,255,255,1);stroke:rgba(0,0,0,.54) !important}#chart-30f61851-0770-4657-899e-0cba32d00897 .map-element .reactive{fill-opacity:inherit;stroke-opacity:inherit}#chart-30f61851-0770-4657-899e-0cba32d00897 .color-0,#chart-30f61851-0770-4657-899e-0cba32d00897 .color-0 a:visited{stroke:#f44336;fill:#f44336}#chart-30f61851-0770-4657-899e-0cba32d00897 .color-1,#chart-30f61851-0770-4657-899e-0cba32d00897 .color-1 a:visited{stroke:#3f51b5;fill:#3f51b5}#chart-30f61851-0770-4657-899e-0cba32d00897 .color-2,#chart-30f61851-0770-4657-899e-0cba32d00897 .color-2 a:visited{stroke:#009688;fill:#009688}#chart-30f61851-0770-4657-899e-0cba32d00897 .color-3,#chart-30f61851-0770-4657-899e-0cba32d00897 .color-3 a:visited{stroke:#ffc107;fill:#ffc107}#chart-30f61851-0770-4657-899e-0cba32d00897 .color-4,#chart-30f61851-0770-4657-899e-0cba32d00897 .color-4 a:visited{stroke:#ff5722;fill:#ff5722}#chart-30f61851-0770-4657-899e-0cba32d00897 .color-5,#chart-30f61851-0770-4657-899e-0cba32d00897 .color-5 a:visited{stroke:#9c27b0;fill:#9c27b0}#chart-30f61851-0770-4657-899e-0cba32d00897 .color-6,#chart-30f61851-0770-4657-899e-0cba32d00897 .color-6 a:visited{stroke:#03a9f4;fill:#03a9f4}#chart-30f61851-0770-4657-899e-0cba32d00897 .color-7,#chart-30f61851-0770-4657-899e-0cba32d00897 .color-7 a:visited{stroke:#8bc34a;fill:#8bc34a}#chart-30f61851-0770-4657-899e-0cba32d00897 .color-8,#chart-30f61851-0770-4657-899e-0cba32d00897 .color-8 a:visited{stroke:#ff9800;fill:#ff9800}#chart-30f61851-0770-4657-899e-0cba32d00897 .color-9,#chart-30f61851-0770-4657-899e-0cba32d00897 .color-9 a:visited{stroke:#e91e63;fill:#e91e63}#chart-30f61851-0770-4657-899e-0cba32d00897 .color-10,#chart-30f61851-0770-4657-899e-0cba32d00897 .color-10 a:visited{stroke:#2196f3;fill:#2196f3}#chart-30f61851-0770-4657-899e-0cba32d00897 .color-11,#chart-30f61851-0770-4657-899e-0cba32d00897 .color-11 a:visited{stroke:#4caf50;fill:#4caf50}#chart-30f61851-0770-4657-899e-0cba32d00897 .color-12,#chart-30f61851-0770-4657-899e-0cba32d00897 .color-12 a:visited{stroke:#ffeb3b;fill:#ffeb3b}#chart-30f61851-0770-4657-899e-0cba32d00897 .color-13,#chart-30f61851-0770-4657-899e-0cba32d00897 .color-13 a:visited{stroke:#673ab7;fill:#673ab7}#chart-30f61851-0770-4657-899e-0cba32d00897 .color-14,#chart-30f61851-0770-4657-899e-0cba32d00897 .color-14 a:visited{stroke:#00bcd4;fill:#00bcd4}#chart-30f61851-0770-4657-899e-0cba32d00897 .color-15,#chart-30f61851-0770-4657-899e-0cba32d00897 .color-15 a:visited{stroke:#cddc39;fill:#cddc39}#chart-30f61851-0770-4657-899e-0cba32d00897 .color-16,#chart-30f61851-0770-4657-899e-0cba32d00897 .color-16 a:visited{stroke:#9e9e9e;fill:#9e9e9e}#chart-30f61851-0770-4657-899e-0cba32d00897 .color-17,#chart-30f61851-0770-4657-899e-0cba32d00897 .color-17 a:visited{stroke:#607d8b;fill:#607d8b}#chart-30f61851-0770-4657-899e-0cba32d00897 .color-18,#chart-30f61851-0770-4657-899e-0cba32d00897 .color-18 a:visited{stroke:#7b0f07;fill:#7b0f07}#chart-30f61851-0770-4657-899e-0cba32d00897 .text-overlay .color-0 text{fill:black}#chart-30f61851-0770-4657-899e-0cba32d00897 .text-overlay .color-1 text{fill:black}#chart-30f61851-0770-4657-899e-0cba32d00897 .text-overlay .color-2 text{fill:black}#chart-30f61851-0770-4657-899e-0cba32d00897 .text-overlay .color-3 text{fill:black}#chart-30f61851-0770-4657-899e-0cba32d00897 .text-overlay .color-4 text{fill:black}#chart-30f61851-0770-4657-899e-0cba32d00897 .text-overlay .color-5 text{fill:black}#chart-30f61851-0770-4657-899e-0cba32d00897 .text-overlay .color-6 text{fill:black}#chart-30f61851-0770-4657-899e-0cba32d00897 .text-overlay .color-7 text{fill:black}#chart-30f61851-0770-4657-899e-0cba32d00897 .text-overlay .color-8 text{fill:black}#chart-30f61851-0770-4657-899e-0cba32d00897 .text-overlay .color-9 text{fill:black}#chart-30f61851-0770-4657-899e-0cba32d00897 .text-overlay .color-10 text{fill:black}#chart-30f61851-0770-4657-899e-0cba32d00897 .text-overlay .color-11 text{fill:black}#chart-30f61851-0770-4657-899e-0cba32d00897 .text-overlay .color-12 text{fill:black}#chart-30f61851-0770-4657-899e-0cba32d00897 .text-overlay .color-13 text{fill:black}#chart-30f61851-0770-4657-899e-0cba32d00897 .text-overlay .color-14 text{fill:black}#chart-30f61851-0770-4657-899e-0cba32d00897 .text-overlay .color-15 text{fill:black}#chart-30f61851-0770-4657-899e-0cba32d00897 .text-overlay .color-16 text{fill:black}#chart-30f61851-0770-4657-899e-0cba32d00897 .text-overlay .color-17 text{fill:black}#chart-30f61851-0770-4657-899e-0cba32d00897 .text-overlay .color-18 text{fill:black}
#chart-30f61851-0770-4657-899e-0cba32d00897 text.no_data{text-anchor:middle}#chart-30f61851-0770-4657-899e-0cba32d00897 .guide.line{fill:none}#chart-30f61851-0770-4657-899e-0cba32d00897 .centered{text-anchor:middle}#chart-30f61851-0770-4657-899e-0cba32d00897 .title{text-anchor:middle}#chart-30f61851-0770-4657-899e-0cba32d00897 .legends .legend text{fill-opacity:1}#chart-30f61851-0770-4657-899e-0cba32d00897 .axis.x text{text-anchor:middle}#chart-30f61851-0770-4657-899e-0cba32d00897 .axis.x:not(.web) text[transform]{text-anchor:start}#chart-30f61851-0770-4657-899e-0cba32d00897 .axis.x:not(.web) text[transform].backwards{text-anchor:end}#chart-30f61851-0770-4657-899e-0cba32d00897 .axis.y text{text-anchor:end}#chart-30f61851-0770-4657-899e-0cba32d00897 .axis.y text[transform].backwards{text-anchor:start}#chart-30f61851-0770-4657-899e-0cba32d00897 .axis.y2 text{text-anchor:start}#chart-30f61851-0770-4657-899e-0cba32d00897 .axis.y2 text[transform].backwards{text-anchor:end}#chart-30f61851-0770-4657-899e-0cba32d00897 .axis .guide.line{stroke-dasharray:4,4}#chart-30f61851-0770-4657-899e-0cba32d00897 .axis .major.guide.line{stroke-dasharray:6,6}#chart-30f61851-0770-4657-899e-0cba32d00897 .horizontal .axis.y .guide.line,#chart-30f61851-0770-4657-899e-0cba32d00897 .horizontal .axis.y2 .guide.line,#chart-30f61851-0770-4657-899e-0cba32d00897 .vertical .axis.x .guide.line{opacity:0}#chart-30f61851-0770-4657-899e-0cba32d00897 .horizontal .axis.always_show .guide.line,#chart-30f61851-0770-4657-899e-0cba32d00897 .vertical .axis.always_show .guide.line{opacity:1 !important}#chart-30f61851-0770-4657-899e-0cba32d00897 .axis.y .guides:hover .guide.line,#chart-30f61851-0770-4657-899e-0cba32d00897 .axis.y2 .guides:hover .guide.line,#chart-30f61851-0770-4657-899e-0cba32d00897 .axis.x .guides:hover .guide.line{opacity:1}#chart-30f61851-0770-4657-899e-0cba32d00897 .axis .guides:hover text{opacity:1}#chart-30f61851-0770-4657-899e-0cba32d00897 .nofill{fill:none}#chart-30f61851-0770-4657-899e-0cba32d00897 .subtle-fill{fill-opacity:.2}#chart-30f61851-0770-4657-899e-0cba32d00897 .dot{stroke-width:1px;fill-opacity:1}#chart-30f61851-0770-4657-899e-0cba32d00897 .dot.active{stroke-width:5px}#chart-30f61851-0770-4657-899e-0cba32d00897 .dot.negative{fill:transparent}#chart-30f61851-0770-4657-899e-0cba32d00897 text,#chart-30f61851-0770-4657-899e-0cba32d00897 tspan{stroke:none !important}#chart-30f61851-0770-4657-899e-0cba32d00897 .series text.active{opacity:1}#chart-30f61851-0770-4657-899e-0cba32d00897 .tooltip rect{fill-opacity:.95;stroke-width:.5}#chart-30f61851-0770-4657-899e-0cba32d00897 .tooltip text{fill-opacity:1}#chart-30f61851-0770-4657-899e-0cba32d00897 .showable{visibility:hidden}#chart-30f61851-0770-4657-899e-0cba32d00897 .showable.shown{visibility:visible}#chart-30f61851-0770-4657-899e-0cba32d00897 .gauge-background{fill:rgba(229,229,229,1);stroke:none}#chart-30f61851-0770-4657-899e-0cba32d00897 .bg-lines{stroke:rgba(249,249,249,1);stroke-width:2px}</style><script type="text/javascript">window.pygal = window.pygal || {};window.pygal.config = window.pygal.config || {};window.pygal.config['30f61851-0770-4657-899e-0cba32d00897'] = {"allow_interruptions": false, "box_mode": "extremes", "classes": ["pygal-chart"], "css": ["file://style.css", "file://graph.css"], "defs": [], "disable_xml_declaration": false, "dots_size": 2.5, "dynamic_print_values": false, "explicit_size": false, "fill": false, "force_uri_protocol": "https", "formatter": null, "half_pie": false, "height": 600, "include_x_axis": false, "inner_radius": 0, "interpolate": "cubic", "interpolation_parameters": {}, "interpolation_precision": 250, "inverse_y_axis": false, "js": ["//kozea.github.io/pygal.js/2.0.x/pygal-tooltips.min.js"], "legend_at_bottom": false, "legend_at_bottom_columns": null, "legend_box_size": 12, "logarithmic": false, "margin": 20, "margin_bottom": null, "margin_left": null, "margin_right": null, "margin_top": null, "max_scale": 16, "min_scale": 4, "missing_value_fill_truncation": "x", "no_data_text": "No data", "no_prefix": false, "order_min": null, "pretty_print": false, "print_labels": true, "print_values": false, "print_values_position": "center", "print_zeroes": true, "range": null, "rounded_bars": null, "secondary_range": null, "show_dots": true, "show_legend": true, "show_minor_x_labels": true, "show_minor_y_labels": true, "show_only_major_dots": false, "show_x_guides": false, "show_x_labels": true, "show_y_guides": true, "show_y_labels": true, "spacing": 10, "stack_from_top": false, "strict": false, "stroke": true, "stroke_style": null, "style": {"background": "rgba(249, 249, 249, 1)", "ci_colors": [], "colors": ["#F44336", "#3F51B5", "#009688", "#FFC107", "#FF5722", "#9C27B0", "#03A9F4", "#8BC34A", "#FF9800", "#E91E63", "#2196F3", "#4CAF50", "#FFEB3B", "#673AB7", "#00BCD4", "#CDDC39", "#9E9E9E", "#607D8B"], "font_family": "Consolas, \"Liberation Mono\", Menlo, Courier, monospace", "foreground": "rgba(0, 0, 0, .87)", "foreground_strong": "rgba(0, 0, 0, 1)", "foreground_subtle": "rgba(0, 0, 0, .54)", "guide_stroke_dasharray": "4,4", "label_font_family": "Consolas, \"Liberation Mono\", Menlo, Courier, monospace", "label_font_size": 10, "legend_font_family": "Consolas, \"Liberation Mono\", Menlo, Courier, monospace", "legend_font_size": 14, "major_guide_stroke_dasharray": "6,6", "major_label_font_family": "Consolas, \"Liberation Mono\", Menlo, Courier, monospace", "major_label_font_size": 10, "no_data_font_family": "Consolas, \"Liberation Mono\", Menlo, Courier, monospace", "no_data_font_size": 64, "opacity": ".7", "opacity_hover": ".8", "plot_background": "rgba(255, 255, 255, 1)", "stroke_opacity": ".8", "stroke_opacity_hover": ".9", "title_font_family": "Consolas, \"Liberation Mono\", Menlo, Courier, monospace", "title_font_size": 16, "tooltip_font_family": "Consolas, \"Liberation Mono\", Menlo, Courier, monospace", "tooltip_font_size": 14, "transition": "150ms", "value_background": "rgba(229, 229, 229, 1)", "value_colors": [], "value_font_family": "Consolas, \"Liberation Mono\", Menlo, Courier, monospace", "value_font_size": 16, "value_label_font_family": "Consolas, \"Liberation Mono\", Menlo, Courier, monospace", "value_label_font_size": 10}, "title": "tagMac: 0xa154a8", "tooltip_border_radius": 0, "tooltip_fancy_mode": true, "truncate_label": null, "truncate_legend": null, "width": 800, "x_label_rotation": 0, "x_labels": null, "x_labels_major": null, "x_labels_major_count": null, "x_labels_major_every": null, "x_title": null, "xrange": null, "y_label_rotation": 0, "y_labels": null, "y_labels_major": null, "y_labels_major_count": null, "y_labels_major_every": null, "y_title": null, "zero": 0, "legends": ["6d5fc7ac", "e6987764", "a94ebc8c", "4fe026ea", "a30129e6", "9256ccf4", "9b54ac40", "ed7ace28", "22cd0394", "80154804", "1fc6a334", "b1ee0b5e", "19243e66", "669043ca", "2aa79574", "74456644", "ceb7bb5e", "de6ee6b2", "b820b292"]}</script><script type="text/javascript" xlink:href="https://kozea.github.io/pygal.js/2.0.x/pygal-tooltips.min.js"/></defs><title>tagMac: 0xa154a8</title><g class="graph line-graph vertical"><rect x="0" y="0" width="800" height="600" class="background"/><g transform="translate(137, 46)" class="plot"><rect x="0" y="0" width="642.8" height="534" class="background"/><g class="axis y always_show"><path d="M0.000000 534.000000 h642.800000" class="line"/><g class="guides"><path d="M0.000000 504.713675 h642.800000" class="guide line"/><text x="-5" y="508.2136752136751" class="">-74</text><title>-74</title></g><g class="guides"><path d="M0.000000 466.679487 h642.800000" class="guide line"/><text x="-5" y="470.17948717948707" class="">-72</text><title>-72</title></g><g class="guides"><path d="M0.000000 428.645299 h642.800000" class="major guide line"/><text x="-5" y="432.1452991452991" class="major">-70</text><title>-70</title></g><g class="guides"><path d="M0.000000 390.611111 h642.800000" class="guide line"/><text x="-5" y="394.11111111111103" class="">-68</text><title>-68</title></g><g class="guides"><path d="M0.000000 352.576923 h642.800000" class="guide line"/><text x="-5" y="356.076923076923" class="">-66</text><title>-66</title></g><g class="guides"><path d="M0.000000 314.542735 h642.800000" class="guide line"/><text x="-5" y="318.042735042735" class="">-64</text><title>-64</title></g><g class="guides"><path d="M0.000000 276.508547 h642.800000" class="guide line"/><text x="-5" y="280.00854700854694" class="">-62</text><title>-62</title></g><g class="guides"><path d="M0.000000 238.474359 h642.800000" class="major guide line"/><text x="-5" y="241.9743589743589" class="major">-60</text><title>-60</title></g><g class="guides"><path d="M0.000000 200.440171 h642.800000" class="guide line"/><text x="-5" y="203.94017094017084" class="">-58</text><title>-58</title></g><g class="guides"><path d="M0.000000 162.405983 h642.800000" class="guide line"/><text x="-5" y="165.90598290598285" class="">-56</text><title>-56</title></g><g class="guides"><path d="M0.000000 124.371795 h642.800000" class="guide line"/><text x="-5" y="127.8717948717948" class="">-54</text><title>-54</title></g><g class="guides"><path d="M0.000000 86.337607 h642.800000" class="guide line"/><text x="-5" y="89.83760683760676" class="">-52</text><title>-52</title></g><g class="guides"><path d="M0.000000 48.303419 h642.800000" class="major guide line"/><text x="-5" y="51.803418803418765" class="major">-50</text><title>-50</title></g><g class="guides"><path d="M0.000000 10.269231 h642.800000" class="guide line"/><text x="-5" y="13.769230769230717" class="">-48</text><title>-48</title></g></g><g class="series serie-0 color-0"><path d="M12.361538 504.713675 L13.597692 503.895942 14.833846 503.078222 16.070000 502.260528 17.306154 501.442871 18.542308 500.625266 19.778462 499.807725 21.014615 498.990260 22.250769 498.172885 23.486923 497.355613 24.723077 496.538455 25.959231 495.721425 27.195385 494.904535 28.431538 494.087799 29.667692 493.271229 30.903846 492.454838 32.140000 491.638639 33.376154 490.822644 34.612308 490.006866 35.848462 489.191318 37.084615 488.376014 38.320769 487.560964 39.556923 486.746184 40.793077 485.931684 42.029231 485.117478 43.265385 484.303579 44.501538 483.489999 45.737692 482.676752 46.973846 481.863850 48.210000 481.051305 49.446154 480.239132 50.682308 479.427341 51.918462 478.615947 53.154615 477.804962 54.390769 476.994398 55.626923 476.184269 56.863077 475.374587 58.099231 474.565365 59.335385 473.756616 60.571538 472.948353 61.807692 472.140588 63.043846 471.333334 64.280000 470.526605 65.516154 469.720411 66.752308 468.914768 67.988462 468.109687 69.224615 467.305181 70.460769 466.501262 71.696923 465.697945 72.933077 464.895240 74.169231 464.093162 75.405385 463.291723 76.641538 462.490936 77.877692 461.690813 79.113846 460.891368 80.350000 460.092612 81.586154 459.294560 82.822308 458.497223 84.058462 457.700615 85.294615 456.904747 86.530769 456.109634 87.766923 455.315288 89.003077 454.521721 90.239231 453.728946 91.475385 452.936977 92.711538 452.145825 93.947692 451.355504 95.183846 450.566027 96.420000 449.777406 97.656154 448.989653 98.892308 448.202783 100.128462 447.416807 101.364615 446.631738 102.600769 445.847590 103.836923 445.064375 105.073077 444.282105 106.309231 443.500793 107.545385 442.720453 108.781538 441.941097 110.017692 441.162738 111.253846 440.385388 112.490000 439.609061 113.726154 438.833768 114.962308 438.059524 116.198462 437.286340 117.434615 436.514230 118.670769 435.743206 119.906923 434.973282 121.143077 434.204469 122.379231 433.436780 123.615385 432.670229 124.851538 431.904828 126.087692 431.140590 127.323846 430.377528 128.560000 429.615654 129.796154 428.854982 131.032308 428.095523 132.268462 427.337292 133.504615 426.580300 134.740769 425.824560 135.976923 425.070085 137.213077 424.316889 138.449231 423.564983 139.685385 422.814381 140.921538 422.065095 142.157692 421.317138 143.393846 420.570523 144.630000 419.825263 145.866154 419.081369 147.102308 418.338857 148.338462 417.597737 149.574615 416.858023 150.810769 416.119727 152.046923 415.382863 153.283077 414.647442 154.519231 413.913479 155.755385 413.180985 156.991538 412.449974 158.227692 411.720458 159.463846 410.992450 160.700000 410.265962 161.936154 409.541009 163.172308 408.817601 164.408462 408.095753 165.644615 407.375476 166.880769 406.656784 168.116923 405.939690 169.353077 405.224206 170.589231 404.510344 171.825385 403.798119 173.061538 403.087542 174.297692 402.378626 175.533846 401.671385 176.770000 400.965830 178.006154 400.261975 179.242308 399.559833 180.478462 398.859416 181.714615 398.160736 182.950769 397.463808 184.186923 396.768643 185.423077 396.075255 186.659231 395.383655 187.895385 394.693858 189.131538 394.005875 190.367692 393.319720 191.603846 392.635405 192.840000 391.952943 194.076154 391.272346 195.312308 390.593629 196.548462 389.916802 197.784615 389.241880 199.020769 388.568875 200.256923 387.897800 201.493077 387.228667 202.729231 386.561489 203.965385 385.896279 205.201538 385.233050 206.437692 384.571815 207.673846 383.912586 208.910000 383.255376 210.146154 382.600198 211.382308 381.947065 212.618462 381.295990 213.854615 380.646984 215.090769 380.000062 216.326923 379.355235 217.563077 378.712518 218.799231 378.071921 220.035385 377.433459 221.271538 376.797144 222.507692 376.162988 223.743846 375.531005 224.980000 374.901207 226.216154 374.273607 227.452308 373.648219 228.688462 373.025053 229.924615 372.404125 231.160769 371.785445 232.396923 371.169027 233.633077 370.554884 234.869231 369.943029 236.105385 369.333474 237.341538 368.726232 238.577692 368.121316 239.813846 367.518738 241.050000 366.918512 242.286154 366.320651 243.522308 365.725166 244.758462 365.132071 245.994615 364.541378 247.230769 363.953101 248.466923 363.367252 249.703077 362.783844 250.939231 362.202889 252.175385 361.624401 253.411538 361.048392 254.647692 360.474875 255.883846 359.903863 257.120000 359.335368 258.356154 358.769404 259.592308 358.205983 260.828462 357.645118 262.064615 357.086821 263.300769 356.531106 264.536923 355.977985 265.773077 355.427471 267.009231 354.879577 268.245385 354.334316 269.481538 353.791700 270.717692 353.251742 271.953846 352.714455 273.190000 352.179851 274.426154 351.647944 275.662308 351.118747 276.898462 350.592271 278.134615 350.068530 279.370769 349.547537 280.606923 349.029304 281.843077 348.513845 283.079231 348.001171 284.315385 347.491296 285.551538 346.984232 286.787692 346.479993 288.023846 345.978591 289.260000 345.480038 290.496154 344.984348 291.732308 344.491534 292.968462 344.001608 294.204615 343.514582 295.440769 343.030471 296.676923 342.549285 297.913077 342.071040 299.149231 341.595746 300.385385 341.123417 301.621538 340.654066 302.857692 340.187705 304.093846 339.724347 305.330000 339.264005 306.566154 338.806692 307.802308 338.352421 309.038462 337.901203 310.274615 337.453053 311.510769 337.007983 312.746923 336.566005 313.983077 336.127133 315.219231 335.691379 316.455385 335.258756 317.691538 334.829277 318.927692 334.402954 320.163846 333.979800 321.400000 333.559829 322.636154 333.143048 323.872308 332.729450 325.108462 332.319020 326.344615 331.911747 327.580769 331.507618 328.816923 331.106620 330.053077 330.708740 331.289231 330.313966 332.525385 329.922284 333.761538 329.533682 334.997692 329.148147 336.233846 328.765667 337.470000 328.386227 338.706154 328.009817 339.942308 327.636423 341.178462 327.266031 342.414615 326.898631 343.650769 326.534207 344.886923 326.172749 346.123077 325.814243 347.359231 325.458676 348.595385 325.106035 349.831538 324.756308 351.067692 324.409483 352.303846 324.065545 353.540000 323.724483 354.776154 323.386283 356.012308 323.050933 357.248462 322.718420 358.484615 322.388732 359.720769 322.061855 360.956923 321.737776 362.193077 321.416484 363.429231 321.097964 364.665385 320.782206 365.901538 320.469194 367.137692 320.158918 368.373846 319.851363 369.610000 319.546518 370.846154 319.244369 372.082308 318.944904 373.318462 318.648110 374.554615 318.353974 375.790769 318.062483 377.026923 317.773625 378.263077 317.487387 379.499231 317.203756 380.735385 316.922719 381.971538 316.644263 383.207692 316.368376 384.443846 316.095045 385.680000 315.824257 386.916154 315.556000 388.152308 315.290260 389.388462 315.027024 390.624615 314.766281 391.860769 314.508017 393.096923 314.252220 394.333077 313.998876 395.569231 313.747973 396.805385 313.499498 398.041538 313.253438 399.277692 313.009781 400.513846 312.768514 401.750000 312.529624 402.986154 312.293097 404.222308 312.058923 405.458462 311.827087 406.694615 311.597577 407.930769 311.370379 409.166923 311.145483 410.403077 310.922873 411.639231 310.702539 412.875385 310.484466 414.111538 310.268643 415.347692 310.055056 416.583846 309.843693 417.820000 309.634541 419.056154 309.427586 420.292308 309.222817 421.528462 309.020221 422.764615 308.819784 424.000769 308.621494 425.236923 308.425338 426.473077 308.231304 427.709231 308.039378 428.945385 307.849548 430.181538 307.661802 431.417692 307.476125 432.653846 307.292506 433.890000 307.110932 435.126154 306.931389 436.362308 306.753866 437.598462 306.578349 438.834615 306.404826 440.070769 306.233284 441.306923 306.063709 442.543077 305.896090 443.779231 305.730414 445.015385 305.566667 446.251538 305.404837 447.487692 305.244911 448.723846 305.086876 449.960000 304.930720 451.196154 304.776430 452.432308 304.623993 453.668462 304.473396 454.904615 304.324627 456.140769 304.177672 457.376923 304.032520 458.613077 303.889156 459.849231 303.747569 461.085385 303.607745 462.321538 303.469672 463.557692 303.333337 464.793846 303.198727 466.030000 303.065830 467.266154 302.934633 468.502308 302.805122 469.738462 302.677285 470.974615 302.551110 472.210769 302.426584 473.446923 302.303693 474.683077 302.182425 475.919231 302.062767 477.155385 301.944707 478.391538 301.828231 479.627692 301.713328 480.863846 301.599983 482.100000 301.488185 483.336154 301.377920 484.572308 301.269176 485.808462 301.161940 487.044615 301.056199 488.280769 300.951941 489.516923 300.849152 490.753077 300.747820 491.989231 300.647932 493.225385 300.549476 494.461538 300.452438 495.697692 300.356805 496.933846 300.262566 498.170000 300.169707 499.406154 300.078215 500.642308 299.988078 501.878462 299.899283 503.114615 299.811817 504.350769 299.725667 505.586923 299.640821 506.823077 299.557265 508.059231 299.474987 509.295385 299.393975 510.531538 299.314215 511.767692 299.235694 513.003846 299.158400 514.240000 299.082321 515.476154 299.007442 516.712308 298.933753 517.948462 298.861238 519.184615 298.789887 520.420769 298.719686 521.656923 298.650622 522.893077 298.582683 524.129231 298.515856 525.365385 298.450128 526.601538 298.385486 527.837692 298.321917 529.073846 298.259409 530.310000 298.197950 531.546154 298.137525 532.782308 298.078122 534.018462 298.019730 535.254615 297.962334 536.490769 297.905922 537.726923 297.850481 538.963077 297.795998 540.199231 297.742462 541.435385 297.689858 542.671538 297.638175 543.907692 297.587398 545.143846 297.537517 546.380000 297.488517 547.616154 297.440386 548.852308 297.393111 550.088462 297.346680 551.324615 297.301079 552.560769 297.256297 553.796923 297.212319 555.033077 297.169134 556.269231 297.126728 557.505385 297.085089 558.741538 297.044204 559.977692 297.004061 561.213846 296.964645 562.450000 296.925946 563.686154 296.887949 564.922308 296.850642 566.158462 296.814013 567.394615 296.778048 568.630769 296.742735 569.866923 296.708061 571.103077 296.674013 572.339231 296.640579 573.575385 296.607745 574.811538 296.575499 576.047692 296.543828 577.283846 296.512719 578.520000 296.482160 579.756154 296.452138 580.992308 296.422639 582.228462 296.393652 583.464615 296.365163 584.700769 296.337160 585.936923 296.309630 587.173077 296.282559 588.409231 296.255936 589.645385 296.229748 590.881538 296.203981 592.117692 296.178623 593.353846 296.153662 594.590000 296.129083 595.826154 296.104876 597.062308 296.081026 598.298462 296.057521 599.534615 296.034348 600.770769 296.011495 602.006923 295.988949 603.243077 295.966696 604.479231 295.944725 605.715385 295.923022 606.951538 295.901575 608.187692 295.880370 609.423846 295.859396 610.660000 295.838639 611.896154 295.818086 613.132308 295.797725 614.368462 295.777543 615.604615 295.757527 616.840769 295.737664 618.076923 295.717942 619.313077 295.698348 620.549231 295.678868 621.785385 295.659491 623.021538 295.640204 624.257692 295.620993 625.493846 295.601846 626.730000 295.582750 627.966154 295.563692 629.202308 295.544660 630.438462 295.525641" class="line reactive nofill"/></g><g class="series serie-1 color-1"><path d="M12.361538 333.559829 L13.597692 334.244444 14.833846 334.929060 16.070000 335.613675 17.306154 336.298291 18.542308 336.982906 19.778462 337.667521 21.014615 338.352137 22.250769 339.036752 23.486923 339.721368 24.723077 340.405983 25.959231 341.090598 27.195385 341.775214 28.431538 342.459829 29.667692 343.144444 30.903846 343.829060 32.140000 344.513675 33.376154 345.198291 34.612308 345.882906 35.848462 346.567521 37.084615 347.252137 38.320769 347.936752 39.556923 348.621368 40.793077 349.305983 42.029231 349.990598 43.265385 350.675214 44.501538 351.359829 45.737692 352.044444 46.973846 352.729060 48.210000 353.413675 49.446154 354.098291 50.682308 354.782906 51.918462 355.467521 53.154615 356.152137 54.390769 356.836752 55.626923 357.521368 56.863077 358.205983 58.099231 358.890598 59.335385 359.575214 60.571538 360.259829 61.807692 360.944444 63.043846 361.629060 64.280000 362.313675 65.516154 362.998291 66.752308 363.682906 67.988462 364.367521 69.224615 365.052137 70.460769 365.736752 71.696923 366.421368 72.933077 367.105983 74.169231 367.790598 75.405385 368.475214 76.641538 369.159829 77.877692 369.844444 79.113846 370.529060 80.350000 371.213675 81.586154 371.898291 82.822308 372.582906 84.058462 373.267521 85.294615 373.952137 86.530769 374.636752 87.766923 375.321368 89.003077 376.005983 90.239231 376.690598 91.475385 377.375214 92.711538 378.059829 93.947692 378.744444 95.183846 379.429060 96.420000 380.113675 97.656154 380.798291 98.892308 381.482906 100.128462 382.167521 101.364615 382.852137 102.600769 383.536752 103.836923 384.221368 105.073077 384.905983 106.309231 385.590598 107.545385 386.275214 108.781538 386.959829 110.017692 387.644444 111.253846 388.329060 112.490000 389.013675 113.726154 389.698291 114.962308 390.382906 116.198462 391.067521 117.434615 391.752137 118.670769 392.436752 119.906923 393.121368 121.143077 393.805983 122.379231 394.490598 123.615385 395.175214 124.851538 395.859829 126.087692 396.544444 127.323846 397.229060 128.560000 397.913675 129.796154 398.598291 131.032308 399.282906 132.268462 399.967521 133.504615 400.652137 134.740769 401.336752 135.976923 402.021368 137.213077 402.705983 138.449231 403.390598 139.685385 404.075214 140.921538 404.759829 142.157692 405.444444 143.393846 406.129060 144.630000 406.813675 145.866154 407.498291 147.102308 408.182906 148.338462 408.867521 149.574615 409.552137 150.810769 410.236752 152.046923 410.921368 153.283077 411.605983 154.519231 412.290598 155.755385 412.975214 156.991538 413.659829 158.227692 414.344444 159.463846 415.029060 160.700000 415.713675 161.936154 416.398291 163.172308 417.082906 164.408462 417.767521 165.644615 418.452137 166.880769 419.136752 168.116923 419.821368 169.353077 420.505983 170.589231 421.190598 171.825385 421.875214 173.061538 422.559829 174.297692 423.244444 175.533846 423.929060 176.770000 424.613675 178.006154 425.298291 179.242308 425.982906 180.478462 426.667521 181.714615 427.352137 182.950769 428.036752 184.186923 428.721368 185.423077 429.405983 186.659231 430.090598 187.895385 430.775214 189.131538 431.459829 190.367692 432.144444 191.603846 432.829060 192.840000 433.513675 194.076154 434.198291 195.312308 434.882906 196.548462 435.567521 197.784615 436.252137 199.020769 436.936752 200.256923 437.621368 201.493077 438.305983 202.729231 438.990598 203.965385 439.675214 205.201538 440.359829 206.437692 441.044444 207.673846 441.729060 208.910000 442.413675 210.146154 443.098291 211.382308 443.782906 212.618462 444.467521 213.854615 445.152137 215.090769 445.836752 216.326923 446.521368 217.563077 447.205983 218.799231 447.890598 220.035385 448.575214 221.271538 449.259829 222.507692 449.944444 223.743846 450.629060 224.980000 451.313675 226.216154 451.998291 227.452308 452.682906 228.688462 453.367521 229.924615 454.052137 231.160769 454.736752 232.396923 455.421368 233.633077 456.105983 234.869231 456.790598 236.105385 457.475214 237.341538 458.159829 238.577692 458.844444 239.813846 459.529060 241.050000 460.213675 242.286154 460.898291 243.522308 461.582906 244.758462 462.267521 245.994615 462.952137 247.230769 463.636752 248.466923 464.321368 249.703077 465.005983 250.939231 465.690598 252.175385 466.375214 253.411538 467.059829 254.647692 467.744444 255.883846 468.429060 257.120000 469.113675 258.356154 469.798291 259.592308 470.482906 260.828462 471.167521 262.064615 471.852137 263.300769 472.536752 264.536923 473.221368 265.773077 473.905983 267.009231 474.590598 268.245385 475.275214 269.481538 475.959829 270.717692 476.644444 271.953846 477.329060 273.190000 478.013675 274.426154 478.698291 275.662308 479.382906 276.898462 480.067521 278.134615 480.752137 279.370769 481.436752 280.606923 482.121368 281.843077 482.805983 283.079231 483.490598 284.315385 484.175214 285.551538 484.859829 286.787692 485.544444 288.023846 486.229060 289.260000 486.913675 290.496154 487.598291 291.732308 488.282906 292.968462 488.967521 294.204615 489.652137 295.440769 490.336752 296.676923 491.021368 297.913077 491.705983 299.149231 492.390598 300.385385 493.075214 301.621538 493.759829 302.857692 494.444444 304.093846 495.129060 305.330000 495.813675 306.566154 496.498291 307.802308 497.182906 309.038462 497.867521 310.274615 498.552137 311.510769 499.236752 312.746923 499.921368 313.983077 500.605983 315.219231 501.290598 316.455385 501.975214 317.691538 502.659829 318.927692 503.344444 320.163846 504.029060 321.400000 504.713675" class="line reactive nofill"/></g><g class="series serie-2 color-2"/><g class="series serie-3 color-3"/><g class="series serie-4 color-4"/><g class="series serie-5 color-5"><path d="M12.361538 523.730769 L13.597692 523.350427 14.833846 522.970085 16.070000 522.589744 17.306154 522.209402 18.542308 521.829060 19.778462 521.448718 21.014615 521.068376 22.250769 520.688034 23.486923 520.307692 24.723077 519.927350 25.959231 519.547009 27.195385 519.166667 28.431538 518.786325 29.667692 518.405983 30.903846 518.025641 32.140000 517.645299 33.376154 517.264957 34.612308 516.884615 35.848462 516.504274 37.084615 516.123932 38.320769 515.743590 39.556923 515.363248 40.793077 514.982906 42.029231 514.602564 43.265385 514.222222 44.501538 513.841880 45.737692 513.461538 46.973846 513.081197 48.210000 512.700855 49.446154 512.320513 50.682308 511.940171 51.918462 511.559829 53.154615 511.179487 54.390769 510.799145 55.626923 510.418803 56.863077 510.038462 58.099231 509.658120 59.335385 509.277778 60.571538 508.897436 61.807692 508.517094 63.043846 508.136752 64.280000 507.756410 65.516154 507.376068 66.752308 506.995726 67.988462 506.615385 69.224615 506.235043 70.460769 505.854701 71.696923 505.474359 72.933077 505.094017 74.169231 504.713675 75.405385 504.333333 76.641538 503.952991 77.877692 503.572650 79.113846 503.192308 80.350000 502.811966 81.586154 502.431624 82.822308 502.051282 84.058462 501.670940 85.294615 501.290598 86.530769 500.910256 87.766923 500.529915 89.003077 500.149573 90.239231 499.769231 91.475385 499.388889 92.711538 499.008547 93.947692 498.628205 95.183846 498.247863 96.420000 497.867521 97.656154 497.487179 98.892308 497.106838 100.128462 496.726496 101.364615 496.346154 102.600769 495.965812 103.836923 495.585470 105.073077 495.205128 106.309231 494.824786 107.545385 494.444444 108.781538 494.064103 110.017692 493.683761 111.253846 493.303419 112.490000 492.923077 113.726154 492.542735 114.962308 492.162393 116.198462 491.782051 117.434615 491.401709 118.670769 491.021368 119.906923 490.641026 121.143077 490.260684 122.379231 489.880342 123.615385 489.500000 124.851538 489.119658 126.087692 488.739316 127.323846 488.358974 128.560000 487.978632 129.796154 487.598291 131.032308 487.217949 132.268462 486.837607 133.504615 486.457265 134.740769 486.076923 135.976923 485.696581 137.213077 485.316239 138.449231 484.935897 139.685385 484.555556 140.921538 484.175214 142.157692 483.794872 143.393846 483.414530 144.630000 483.034188 145.866154 482.653846 147.102308 482.273504 148.338462 481.893162 149.574615 481.512821 150.810769 481.132479 152.046923 480.752137 153.283077 480.371795 154.519231 479.991453 155.755385 479.611111 156.991538 479.230769 158.227692 478.850427 159.463846 478.470085 160.700000 478.089744 161.936154 477.709402 163.172308 477.329060 164.408462 476.948718 165.644615 476.568376 166.880769 476.188034 168.116923 475.807692 169.353077 475.427350 170.589231 475.047009 171.825385 474.666667 173.061538 474.286325 174.297692 473.905983 175.533846 473.525641 176.770000 473.145299 178.006154 472.764957 179.242308 472.384615 180.478462 472.004274 181.714615 471.623932 182.950769 471.243590 184.186923 470.863248 185.423077 470.482906 186.659231 470.102564 187.895385 469.722222 189.131538 469.341880 190.367692 468.961538 191.603846 468.581197 192.840000 468.200855 194.076154 467.820513 195.312308 467.440171 196.548462 467.059829 197.784615 466.679487 199.020769 466.299145 200.256923 465.918803 201.493077 465.538462 202.729231 465.158120 203.965385 464.777778 205.201538 464.397436 206.437692 464.017094 207.673846 463.636752 208.910000 463.256410 210.146154 462.876068 211.382308 462.495726 212.618462 462.115385 213.854615 461.735043 215.090769 461.354701 216.326923 460.974359 217.563077 460.594017 218.799231 460.213675 220.035385 459.833333 221.271538 459.452991 222.507692 459.072650 223.743846 458.692308 224.980000 458.311966 226.216154 457.931624 227.452308 457.551282 228.688462 457.170940 229.924615 456.790598 231.160769 456.410256 232.396923 456.029915 233.633077 455.649573 234.869231 455.269231 236.105385 454.888889 237.341538 454.508547 238.577692 454.128205 239.813846 453.747863 241.050000 453.367521 242.286154 452.987179 243.522308 452.606838 244.758462 452.226496 245.994615 451.846154 247.230769 451.465812 248.466923 451.085470 249.703077 450.705128 250.939231 450.324786 252.175385 449.944444 253.411538 449.564103 254.647692 449.183761 255.883846 448.803419 257.120000 448.423077 258.356154 448.042735 259.592308 447.662393 260.828462 447.282051 262.064615 446.901709 263.300769 446.521368 264.536923 446.141026 265.773077 445.760684 267.009231 445.380342 268.245385 445.000000 269.481538 444.619658 270.717692 444.239316 271.953846 443.858974 273.190000 443.478632 274.426154 443.098291 275.662308 442.717949 276.898462 442.337607 278.134615 441.957265 279.370769 441.576923 280.606923 441.196581 281.843077 440.816239 283.079231 440.435897 284.315385 440.055556 285.551538 439.675214 286.787692 439.294872 288.023846 438.914530 289.260000 438.534188 290.496154 438.153846 291.732308 437.773504 292.968462 437.393162 294.204615 437.012821 295.440769 436.632479 296.676923 436.252137 297.913077 435.871795 299.149231 435.491453 300.385385 435.111111 301.621538 434.730769 302.857692 434.350427 304.093846 433.970085 305.330000 433.589744 306.566154 433.209402 307.802308 432.829060 309.038462 432.448718 310.274615 432.068376 311.510769 431.688034 312.746923 431.307692 313.983077 430.927350 315.219231 430.547009 316.455385 430.166667 317.691538 429.786325 318.927692 429.405983 320.163846 429.025641 321.400000 428.645299" class="line reactive nofill"/></g><g class="series serie-6 color-6"/><g class="series serie-7 color-7"><path d="M12.361538 181.423077 L13.597692 182.183761 14.833846 182.944444 16.070000 183.705128 17.306154 184.465812 18.542308 185.226496 19.778462 185.987179 21.014615 186.747863 22.250769 187.508547 23.486923 188.269231 24.723077 189.029915 25.959231 189.790598 27.195385 190.551282 28.431538 191.311966 29.667692 192.072650 30.903846 192.833333 32.140000 193.594017 33.376154 194.354701 34.612308 195.115385 35.848462 195.876068 37.084615 196.636752 38.320769 197.397436 39.556923 198.158120 40.793077 198.918803 42.029231 199.679487 43.265385 200.440171 44.501538 201.200855 45.737692 201.961538 46.973846 202.722222 48.210000 203.482906 49.446154 204.243590 50.682308 205.004274 51.918462 205.764957 53.154615 206.525641 54.390769 207.286325 55.626923 208.047009 56.863077 208.807692 58.099231 209.568376 59.335385 210.329060 60.571538 211.089744 61.807692 211.850427 63.043846 212.611111 64.280000 213.371795 65.516154 214.132479 66.752308 214.893162 67.988462 215.653846 69.224615 216.414530 70.460769 217.175214 71.696923 217.935897 72.933077 218.696581 74.169231 219.457265 75.405385 220.217949 76.641538 220.978632 77.877692 221.739316 79.113846 222.500000 80.350000 223.260684 81.586154 224.021368 82.822308 224.782051 84.058462 225.542735 85.294615 226.303419 86.530769 227.064103 87.766923 227.824786 89.003077 228.585470 90.239231 229.346154 91.475385 230.106838 92.711538 230.867521 93.947692 231.628205 95.183846 232.388889 96.420000 233.149573 97.656154 233.910256 98.892308 234.670940 100.128462 235.431624 101.364615 236.192308 102.600769 236.952991 103.836923 237.713675 105.073077 238.474359 106.309231 239.235043 107.545385 239.995726 108.781538 240.756410 110.017692 241.517094 111.253846 242.277778 112.490000 243.038462 113.726154 243.799145 114.962308 244.559829 116.198462 245.320513 117.434615 246.081197 118.670769 246.841880 119.906923 247.602564 121.143077 248.363248 122.379231 249.123932 123.615385 249.884615 124.851538 250.645299 126.087692 251.405983 127.323846 252.166667 128.560000 252.927350 129.796154 253.688034 131.032308 254.448718 132.268462 255.209402 133.504615 255.970085 134.740769 256.730769 135.976923 257.491453 137.213077 258.252137 138.449231 259.012821 139.685385 259.773504 140.921538 260.534188 142.157692 261.294872 143.393846 262.055556 144.630000 262.816239 145.866154 263.576923 147.102308 264.337607 148.338462 265.098291 149.574615 265.858974 150.810769 266.619658 152.046923 267.380342 153.283077 268.141026 154.519231 268.901709 155.755385 269.662393 156.991538 270.423077 158.227692 271.183761 159.463846 271.944444 160.700000 272.705128 161.936154 273.465812 163.172308 274.226496 164.408462 274.987179 165.644615 275.747863 166.880769 276.508547 168.116923 277.269231 169.353077 278.029915 170.589231 278.790598 171.825385 279.551282 173.061538 280.311966 174.297692 281.072650 175.533846 281.833333 176.770000 282.594017 178.006154 283.354701 179.242308 284.115385 180.478462 284.876068 181.714615 285.636752 182.950769 286.397436 184.186923 287.158120 185.423077 287.918803 186.659231 288.679487 187.895385 289.440171 189.131538 290.200855 190.367692 290.961538 191.603846 291.722222 192.840000 292.482906 194.076154 293.243590 195.312308 294.004274 196.548462 294.764957 197.784615 295.525641 199.020769 296.286325 200.256923 297.047009 201.493077 297.807692 202.729231 298.568376 203.965385 299.329060 205.201538 300.089744 206.437692 300.850427 207.673846 301.611111 208.910000 302.371795 210.146154 303.132479 211.382308 303.893162 212.618462 304.653846 213.854615 305.414530 215.090769 306.175214 216.326923 306.935897 217.563077 307.696581 218.799231 308.457265 220.035385 309.217949 221.271538 309.978632 222.507692 310.739316 223.743846 311.500000 224.980000 312.260684 226.216154 313.021368 227.452308 313.782051 228.688462 314.542735 229.924615 315.303419 231.160769 316.064103 232.396923 316.824786 233.633077 317.585470 234.869231 318.346154 236.105385 319.106838 237.341538 319.867521 238.577692 320.628205 239.813846 321.388889 241.050000 322.149573 242.286154 322.910256 243.522308 323.670940 244.758462 324.431624 245.994615 325.192308 247.230769 325.952991 248.466923 326.713675 249.703077 327.474359 250.939231 328.235043 252.175385 328.995726 253.411538 329.756410 254.647692 330.517094 255.883846 331.277778 257.120000 332.038462 258.356154 332.799145 259.592308 333.559829 260.828462 334.320513 262.064615 335.081197 263.300769 335.841880 264.536923 336.602564 265.773077 337.363248 267.009231 338.123932 268.245385 338.884615 269.481538 339.645299 270.717692 340.405983 271.953846 341.166667 273.190000 341.927350 274.426154 342.688034 275.662308 343.448718 276.898462 344.209402 278.134615 344.970085 279.370769 345.730769 280.606923 346.491453 281.843077 347.252137 283.079231 348.012821 284.315385 348.773504 285.551538 349.534188 286.787692 350.294872 288.023846 351.055556 289.260000 351.816239 290.496154 352.576923 291.732308 353.337607 292.968462 354.098291 294.204615 354.858974 295.440769 355.619658 296.676923 356.380342 297.913077 357.141026 299.149231 357.901709 300.385385 358.662393 301.621538 359.423077 302.857692 360.183761 304.093846 360.944444 305.330000 361.705128 306.566154 362.465812 307.802308 363.226496 309.038462 363.987179 310.274615 364.747863 311.510769 365.508547 312.746923 366.269231 313.983077 367.029915 315.219231 367.790598 316.455385 368.551282 317.691538 369.311966 318.927692 370.072650 320.163846 370.833333 321.400000 371.594017" class="line reactive nofill"/></g><g class="series serie-8 color-8"/><g class="series serie-9 color-9"/><g class="series serie-10 color-10"><path d="M12.361538 390.611111 L13.597692 390.915385 14.833846 391.219658 16.070000 391.523932 17.306154 391.828205 18.542308 392.132479 19.778462 392.436752 21.014615 392.741026 22.250769 393.045299 23.486923 393.349573 24.723077 393.653846 25.959231 393.958120 27.195385 394.262393 28.431538 394.566667 29.667692 394.870940 30.903846 395.175214 32.140000 395.479487 33.376154 395.783761 34.612308 396.088034 35.848462 396.392308 37.084615 396.696581 38.320769 397.000855 39.556923 397.305128 40.793077 397.609402 42.029231 397.913675 43.265385 398.217949 44.501538 398.522222 45.737692 398.826496 46.973846 399.130769 48.210000 399.435043 49.446154 399.739316 50.682308 400.043590 51.918462 400.347863 53.154615 400.652137 54.390769 400.956410 55.626923 401.260684 56.863077 401.564957 58.099231 401.869231 59.335385 402.173504 60.571538 402.477778 61.807692 402.782051 63.043846 403.086325 64.280000 403.390598 65.516154 403.694872 66.752308 403.999145 67.988462 404.303419 69.224615 404.607692 70.460769 404.911966 71.696923 405.216239 72.933077 405.520513 74.169231 405.824786 75.405385 406.129060 76.641538 406.433333 77.877692 406.737607 79.113846 407.041880 80.350000 407.346154 81.586154 407.650427 82.822308 407.954701 84.058462 408.258974 85.294615 408.563248 86.530769 408.867521 87.766923 409.171795 89.003077 409.476068 90.239231 409.780342 91.475385 410.084615 92.711538 410.388889 93.947692 410.693162 95.183846 410.997436 96.420000 411.301709 97.656154 411.605983 98.892308 411.910256 100.128462 412.214530 101.364615 412.518803 102.600769 412.823077 103.836923 413.127350 105.073077 413.431624 106.309231 413.735897 107.545385 414.040171 108.781538 414.344444 110.017692 414.648718 111.253846 414.952991 112.490000 415.257265 113.726154 415.561538 114.962308 415.865812 116.198462 416.170085 117.434615 416.474359 118.670769 416.778632 119.906923 417.082906 121.143077 417.387179 122.379231 417.691453 123.615385 417.995726 124.851538 418.300000 126.087692 418.604274 127.323846 418.908547 128.560000 419.212821 129.796154 419.517094 131.032308 419.821368 132.268462 420.125641 133.504615 420.429915 134.740769 420.734188 135.976923 421.038462 137.213077 421.342735 138.449231 421.647009 139.685385 421.951282 140.921538 422.255556 142.157692 422.559829 143.393846 422.864103 144.630000 423.168376 145.866154 423.472650 147.102308 423.776923 148.338462 424.081197 149.574615 424.385470 150.810769 424.689744 152.046923 424.994017 153.283077 425.298291 154.519231 425.602564 155.755385 425.906838 156.991538 426.211111 158.227692 426.515385 159.463846 426.819658 160.700000 427.123932 161.936154 427.428205 163.172308 427.732479 164.408462 428.036752 165.644615 428.341026 166.880769 428.645299 168.116923 428.949573 169.353077 429.253846 170.589231 429.558120 171.825385 429.862393 173.061538 430.166667 174.297692 430.470940 175.533846 430.775214 176.770000 431.079487 178.006154 431.383761 179.242308 431.688034 180.478462 431.992308 181.714615 432.296581 182.950769 432.600855 184.186923 432.905128 185.423077 433.209402 186.659231 433.513675 187.895385 433.817949 189.131538 434.122222 190.367692 434.426496 191.603846 434.730769 192.840000 435.035043 194.076154 435.339316 195.312308 435.643590 196.548462 435.947863 197.784615 436.252137 199.020769 436.556410 200.256923 436.860684 201.493077 437.164957 202.729231 437.469231 203.965385 437.773504 205.201538 438.077778 206.437692 438.382051 207.673846 438.686325 208.910000 438.990598 210.146154 439.294872 211.382308 439.599145 212.618462 439.903419 213.854615 440.207692 215.090769 440.511966 216.326923 440.816239 217.563077 441.120513 218.799231 441.424786 220.035385 441.729060 221.271538 442.033333 222.507692 442.337607 223.743846 442.641880 224.980000 442.946154 226.216154 443.250427 227.452308 443.554701 228.688462 443.858974 229.924615 444.163248 231.160769 444.467521 232.396923 444.771795 233.633077 445.076068 234.869231 445.380342 236.105385 445.684615 237.341538 445.988889 238.577692 446.293162 239.813846 446.597436 241.050000 446.901709 242.286154 447.205983 243.522308 447.510256 244.758462 447.814530 245.994615 448.118803 247.230769 448.423077 248.466923 448.727350 249.703077 449.031624 250.939231 449.335897 252.175385 449.640171 253.411538 449.944444 254.647692 450.248718 255.883846 450.552991 257.120000 450.857265 258.356154 451.161538 259.592308 451.465812 260.828462 451.770085 262.064615 452.074359 263.300769 452.378632 264.536923 452.682906 265.773077 452.987179 267.009231 453.291453 268.245385 453.595726 269.481538 453.900000 270.717692 454.204274 271.953846 454.508547 273.190000 454.812821 274.426154 455.117094 275.662308 455.421368 276.898462 455.725641 278.134615 456.029915 279.370769 456.334188 280.606923 456.638462 281.843077 456.942735 283.079231 457.247009 284.315385 457.551282 285.551538 457.855556 286.787692 458.159829 288.023846 458.464103 289.260000 458.768376 290.496154 459.072650 291.732308 459.376923 292.968462 459.681197 294.204615 459.985470 295.440769 460.289744 296.676923 460.594017 297.913077 460.898291 299.149231 461.202564 300.385385 461.506838 301.621538 461.811111 302.857692 462.115385 304.093846 462.419658 305.330000 462.723932 306.566154 463.028205 307.802308 463.332479 309.038462 463.636752 310.274615 463.941026 311.510769 464.245299 312.746923 464.549573 313.983077 464.853846 315.219231 465.158120 316.455385 465.462393 317.691538 465.766667 318.927692 466.070940 320.163846 466.375214 321.400000 466.679487" class="line reactive nofill"/></g><g class="series serie-11 color-11"><path d="M12.361538 428.645299 L13.597692 427.960684 14.833846 427.276068 16.070000 426.591453 17.306154 425.906838 18.542308 425.222222 19.778462 424.537607 21.014615 423.852991 22.250769 423.168376 23.486923 422.483761 24.723077 421.799145 25.959231 421.114530 27.195385 420.429915 28.431538 419.745299 29.667692 419.060684 30.903846 418.376068 32.140000 417.691453 33.376154 417.006838 34.612308 416.322222 35.848462 415.637607 37.084615 414.952991 38.320769 414.268376 39.556923 413.583761 40.793077 412.899145 42.029231 412.214530 43.265385 411.529915 44.501538 410.845299 45.737692 410.160684 46.973846 409.476068 48.210000 408.791453 49.446154 408.106838 50.682308 407.422222 51.918462 406.737607 53.154615 406.052991 54.390769 405.368376 55.626923 404.683761 56.863077 403.999145 58.099231 403.314530 59.335385 402.629915 60.571538 401.945299 61.807692 401.260684 63.043846 400.576068 64.280000 399.891453 65.516154 399.206838 66.752308 398.522222 67.988462 397.837607 69.224615 397.152991 70.460769 396.468376 71.696923 395.783761 72.933077 395.099145 74.169231 394.414530 75.405385 393.729915 76.641538 393.045299 77.877692 392.360684 79.113846 391.676068 80.350000 390.991453 81.586154 390.306838 82.822308 389.622222 84.058462 388.937607 85.294615 388.252991 86.530769 387.568376 87.766923 386.883761 89.003077 386.199145 90.239231 385.514530 91.475385 384.829915 92.711538 384.145299 93.947692 383.460684 95.183846 382.776068 96.420000 382.091453 97.656154 381.406838 98.892308 380.722222 100.128462 380.037607 101.364615 379.352991 102.600769 378.668376 103.836923 377.983761 105.073077 377.299145 106.309231 376.614530 107.545385 375.929915 108.781538 375.245299 110.017692 374.560684 111.253846 373.876068 112.490000 373.191453 113.726154 372.506838 114.962308 371.822222 116.198462 371.137607 117.434615 370.452991 118.670769 369.768376 119.906923 369.083761 121.143077 368.399145 122.379231 367.714530 123.615385 367.029915 124.851538 366.345299 126.087692 365.660684 127.323846 364.976068 128.560000 364.291453 129.796154 363.606838 131.032308 362.922222 132.268462 362.237607 133.504615 361.552991 134.740769 360.868376 135.976923 360.183761 137.213077 359.499145 138.449231 358.814530 139.685385 358.129915 140.921538 357.445299 142.157692 356.760684 143.393846 356.076068 144.630000 355.391453 145.866154 354.706838 147.102308 354.022222 148.338462 353.337607 149.574615 352.652991 150.810769 351.968376 152.046923 351.283761 153.283077 350.599145 154.519231 349.914530 155.755385 349.229915 156.991538 348.545299 158.227692 347.860684 159.463846 347.176068 160.700000 346.491453 161.936154 345.806838 163.172308 345.122222 164.408462 344.437607 165.644615 343.752991 166.880769 343.068376 168.116923 342.383761 169.353077 341.699145 170.589231 341.014530 171.825385 340.329915 173.061538 339.645299 174.297692 338.960684 175.533846 338.276068 176.770000 337.591453 178.006154 336.906838 179.242308 336.222222 180.478462 335.537607 181.714615 334.852991 182.950769 334.168376 184.186923 333.483761 185.423077 332.799145 186.659231 332.114530 187.895385 331.429915 189.131538 330.745299 190.367692 330.060684 191.603846 329.376068 192.840000 328.691453 194.076154 328.006838 195.312308 327.322222 196.548462 326.637607 197.784615 325.952991 199.020769 325.268376 200.256923 324.583761 201.493077 323.899145 202.729231 323.214530 203.965385 322.529915 205.201538 321.845299 206.437692 321.160684 207.673846 320.476068 208.910000 319.791453 210.146154 319.106838 211.382308 318.422222 212.618462 317.737607 213.854615 317.052991 215.090769 316.368376 216.326923 315.683761 217.563077 314.999145 218.799231 314.314530 220.035385 313.629915 221.271538 312.945299 222.507692 312.260684 223.743846 311.576068 224.980000 310.891453 226.216154 310.206838 227.452308 309.522222 228.688462 308.837607 229.924615 308.152991 231.160769 307.468376 232.396923 306.783761 233.633077 306.099145 234.869231 305.414530 236.105385 304.729915 237.341538 304.045299 238.577692 303.360684 239.813846 302.676068 241.050000 301.991453 242.286154 301.306838 243.522308 300.622222 244.758462 299.937607 245.994615 299.252991 247.230769 298.568376 248.466923 297.883761 249.703077 297.199145 250.939231 296.514530 252.175385 295.829915 253.411538 295.145299 254.647692 294.460684 255.883846 293.776068 257.120000 293.091453 258.356154 292.406838 259.592308 291.722222 260.828462 291.037607 262.064615 290.352991 263.300769 289.668376 264.536923 288.983761 265.773077 288.299145 267.009231 287.614530 268.245385 286.929915 269.481538 286.245299 270.717692 285.560684 271.953846 284.876068 273.190000 284.191453 274.426154 283.506838 275.662308 282.822222 276.898462 282.137607 278.134615 281.452991 279.370769 280.768376 280.606923 280.083761 281.843077 279.399145 283.079231 278.714530 284.315385 278.029915 285.551538 277.345299 286.787692 276.660684 288.023846 275.976068 289.260000 275.291453 290.496154 274.606838 291.732308 273.922222 292.968462 273.237607 294.204615 272.552991 295.440769 271.868376 296.676923 271.183761 297.913077 270.499145 299.149231 269.814530 300.385385 269.129915 301.621538 268.445299 302.857692 267.760684 304.093846 267.076068 305.330000 266.391453 306.566154 265.706838 307.802308 265.022222 309.038462 264.337607 310.274615 263.652991 311.510769 262.968376 312.746923 262.283761 313.983077 261.599145 315.219231 260.914530 316.455385 260.229915 317.691538 259.545299 318.927692 258.860684 320.163846 258.176068 321.400000 257.491453" class="line reactive nofill"/></g><g class="series serie-12 color-12"><path d="M12.361538 295.525641 L13.597692 295.829915 14.833846 296.134188 16.070000 296.438462 17.306154 296.742735 18.542308 297.047009 19.778462 297.351282 21.014615 297.655556 22.250769 297.959829 23.486923 298.264103 24.723077 298.568376 25.959231 298.872650 27.195385 299.176923 28.431538 299.481197 29.667692 299.785470 30.903846 300.089744 32.140000 300.394017 33.376154 300.698291 34.612308 301.002564 35.848462 301.306838 37.084615 301.611111 38.320769 301.915385 39.556923 302.219658 40.793077 302.523932 42.029231 302.828205 43.265385 303.132479 44.501538 303.436752 45.737692 303.741026 46.973846 304.045299 48.210000 304.349573 49.446154 304.653846 50.682308 304.958120 51.918462 305.262393 53.154615 305.566667 54.390769 305.870940 55.626923 306.175214 56.863077 306.479487 58.099231 306.783761 59.335385 307.088034 60.571538 307.392308 61.807692 307.696581 63.043846 308.000855 64.280000 308.305128 65.516154 308.609402 66.752308 308.913675 67.988462 309.217949 69.224615 309.522222 70.460769 309.826496 71.696923 310.130769 72.933077 310.435043 74.169231 310.739316 75.405385 311.043590 76.641538 311.347863 77.877692 311.652137 79.113846 311.956410 80.350000 312.260684 81.586154 312.564957 82.822308 312.869231 84.058462 313.173504 85.294615 313.477778 86.530769 313.782051 87.766923 314.086325 89.003077 314.390598 90.239231 314.694872 91.475385 314.999145 92.711538 315.303419 93.947692 315.607692 95.183846 315.911966 96.420000 316.216239 97.656154 316.520513 98.892308 316.824786 100.128462 317.129060 101.364615 317.433333 102.600769 317.737607 103.836923 318.041880 105.073077 318.346154 106.309231 318.650427 107.545385 318.954701 108.781538 319.258974 110.017692 319.563248 111.253846 319.867521 112.490000 320.171795 113.726154 320.476068 114.962308 320.780342 116.198462 321.084615 117.434615 321.388889 118.670769 321.693162 119.906923 321.997436 121.143077 322.301709 122.379231 322.605983 123.615385 322.910256 124.851538 323.214530 126.087692 323.518803 127.323846 323.823077 128.560000 324.127350 129.796154 324.431624 131.032308 324.735897 132.268462 325.040171 133.504615 325.344444 134.740769 325.648718 135.976923 325.952991 137.213077 326.257265 138.449231 326.561538 139.685385 326.865812 140.921538 327.170085 142.157692 327.474359 143.393846 327.778632 144.630000 328.082906 145.866154 328.387179 147.102308 328.691453 148.338462 328.995726 149.574615 329.300000 150.810769 329.604274 152.046923 329.908547 153.283077 330.212821 154.519231 330.517094 155.755385 330.821368 156.991538 331.125641 158.227692 331.429915 159.463846 331.734188 160.700000 332.038462 161.936154 332.342735 163.172308 332.647009 164.408462 332.951282 165.644615 333.255556 166.880769 333.559829 168.116923 333.864103 169.353077 334.168376 170.589231 334.472650 171.825385 334.776923 173.061538 335.081197 174.297692 335.385470 175.533846 335.689744 176.770000 335.994017 178.006154 336.298291 179.242308 336.602564 180.478462 336.906838 181.714615 337.211111 182.950769 337.515385 184.186923 337.819658 185.423077 338.123932 186.659231 338.428205 187.895385 338.732479 189.131538 339.036752 190.367692 339.341026 191.603846 339.645299 192.840000 339.949573 194.076154 340.253846 195.312308 340.558120 196.548462 340.862393 197.784615 341.166667 199.020769 341.470940 200.256923 341.775214 201.493077 342.079487 202.729231 342.383761 203.965385 342.688034 205.201538 342.992308 206.437692 343.296581 207.673846 343.600855 208.910000 343.905128 210.146154 344.209402 211.382308 344.513675 212.618462 344.817949 213.854615 345.122222 215.090769 345.426496 216.326923 345.730769 217.563077 346.035043 218.799231 346.339316 220.035385 346.643590 221.271538 346.947863 222.507692 347.252137 223.743846 347.556410 224.980000 347.860684 226.216154 348.164957 227.452308 348.469231 228.688462 348.773504 229.924615 349.077778 231.160769 349.382051 232.396923 349.686325 233.633077 349.990598 234.869231 350.294872 236.105385 350.599145 237.341538 350.903419 238.577692 351.207692 239.813846 351.511966 241.050000 351.816239 242.286154 352.120513 243.522308 352.424786 244.758462 352.729060 245.994615 353.033333 247.230769 353.337607 248.466923 353.641880 249.703077 353.946154 250.939231 354.250427 252.175385 354.554701 253.411538 354.858974 254.647692 355.163248 255.883846 355.467521 257.120000 355.771795 258.356154 356.076068 259.592308 356.380342 260.828462 356.684615 262.064615 356.988889 263.300769 357.293162 264.536923 357.597436 265.773077 357.901709 267.009231 358.205983 268.245385 358.510256 269.481538 358.814530 270.717692 359.118803 271.953846 359.423077 273.190000 359.727350 274.426154 360.031624 275.662308 360.335897 276.898462 360.640171 278.134615 360.944444 279.370769 361.248718 280.606923 361.552991 281.843077 361.857265 283.079231 362.161538 284.315385 362.465812 285.551538 362.770085 286.787692 363.074359 288.023846 363.378632 289.260000 363.682906 290.496154 363.987179 291.732308 364.291453 292.968462 364.595726 294.204615 364.900000 295.440769 365.204274 296.676923 365.508547 297.913077 365.812821 299.149231 366.117094 300.385385 366.421368 301.621538 366.725641 302.857692 367.029915 304.093846 367.334188 305.330000 367.638462 306.566154 367.942735 307.802308 368.247009 309.038462 368.551282 310.274615 368.855556 311.510769 369.159829 312.746923 369.464103 313.983077 369.768376 315.219231 370.072650 316.455385 370.376923 317.691538 370.681197 318.927692 370.985470 320.163846 371.289744 321.400000 371.594017" class="line reactive nofill"/></g><g class="series serie-13 color-13"/><g class="series serie-14 color-14"/><g class="series serie-15 color-15"/><g class="series serie-16 color-16"/><g class="series serie-17 color-17"/><g class="series serie-18 color-18"/></g><g class="titles"><text x="400.0" y="26" class="title plot_title">tagMac: 0xa154a8</text></g><g transform="translate(137, 46)" class="plot overlay"><g class="series serie-0 color-0"><g class="dots"><circle cx="12.36153846153846" cy="504.7136752136751" r="2.5" class="dot reactive tooltip-trigger"/><desc class="value">-74</desc><desc class="x top">12.36153846153846</desc><desc class="y top">504.7136752136751</desc></g><g class="dots"><circle cx="321.4" cy="333.559829059829" r="2.5" class="dot reactive tooltip-trigger"/><desc class="value">-65</desc><desc class="x top">321.4</desc><desc class="y top">333.559829059829</desc></g><g class="dots"><circle cx="630.4384615384615" cy="295.525641025641" r="2.5" class="dot reactive tooltip-trigger"/><desc class="value">-63</desc><desc class="x left top">630.4384615384615</desc><desc class="y left top">295.525641025641</desc></g></g><g class="series serie-1 color-1"><g class="dots"><circle cx="12.36153846153846" cy="333.559829059829" r="2.5" class="dot reactive tooltip-trigger"/><desc class="value">-65</desc><desc class="x top">12.36153846153846</desc><desc class="y top">333.559829059829</desc></g><g class="dots"><circle cx="321.4" cy="504.7136752136751" r="2.5" class="dot reactive tooltip-trigger"/><desc class="value">-74</desc><desc class="x top">321.4</desc><desc class="y top">504.7136752136751</desc></g></g><g class="series serie-2 color-2"><g class="dots"><circle cx="12.36153846153846" cy="10.269230769230717" r="2.5" class="dot reactive tooltip-trigger"/><desc class="value">-48</desc><desc class="x ">12.36153846153846</desc><desc class="y ">10.269230769230717</desc></g></g><g class="series serie-3 color-3"><g class="dots"><circle cx="12.36153846153846" cy="333.559829059829" r="2.5" class="dot reactive tooltip-trigger"/><desc class="value">-65</desc><desc class="x top">12.36153846153846</desc><desc class="y top">333.559829059829</desc></g></g><g class="series serie-4 color-4"><g class="dots"><circle cx="12.36153846153846" cy="447.6623931623931" r="2.5" class="dot reactive tooltip-trigger"/><desc class="value">-71</desc><desc class="x top">12.36153846153846</desc><desc class="y top">447.6623931623931</desc></g></g><g class="series serie-5 color-5"><g class="dots"><circle cx="12.36153846153846" cy="523.7307692307692" r="2.5" class="dot reactive tooltip-trigger"/><desc class="value">-75</desc><desc class="x top">12.36153846153846</desc><desc class="y top">523.7307692307692</desc></g><g class="dots"><circle cx="321.4" cy="428.6452991452991" r="2.5" class="dot reactive tooltip-trigger"/><desc class="value">-70</desc><desc class="x top">321.4</desc><desc class="y top">428.6452991452991</desc></g></g><g class="series serie-6 color-6"><g class="dots"><circle cx="12.36153846153846" cy="409.628205128205" r="2.5" class="dot reactive tooltip-trigger"/><desc class="value">-69</desc><desc class="x top">12.36153846153846</desc><desc class="y top">409.628205128205</desc></g></g><g class="series serie-7 color-7"><g class="dots"><circle cx="12.36153846153846" cy="181.42307692307685" r="2.5" class="dot reactive tooltip-trigger"/><desc class="value">-57</desc><desc class="x ">12.36153846153846</desc><desc class="y ">181.42307692307685</desc></g><g class="dots"><circle cx="321.4" cy="371.594017094017" r="2.5" class="dot reactive tooltip-trigger"/><desc class="value">-67</desc><desc class="x top">321.4</desc><desc class="y top">371.594017094017</desc></g></g><g class="series serie-8 color-8"><g class="dots"><circle cx="12.36153846153846" cy="466.67948717948707" r="2.5" class="dot reactive tooltip-trigger"/><desc class="value">-72</desc><desc class="x top">12.36153846153846</desc><desc class="y top">466.67948717948707</desc></g></g><g class="series serie-9 color-9"><g class="dots"><circle cx="12.36153846153846" cy="428.6452991452991" r="2.5" class="dot reactive tooltip-trigger"/><desc class="value">-70</desc><desc class="x top">12.36153846153846</desc><desc class="y top">428.6452991452991</desc></g></g><g class="series serie-10 color-10"><g class="dots"><circle cx="12.36153846153846" cy="390.61111111111103" r="2.5" class="dot reactive tooltip-trigger"/><desc class="value">-68</desc><desc class="x top">12.36153846153846</desc><desc class="y top">390.61111111111103</desc></g><g class="dots"><circle cx="321.4" cy="466.67948717948707" r="2.5" class="dot reactive tooltip-trigger"/><desc class="value">-72</desc><desc class="x top">321.4</desc><desc class="y top">466.67948717948707</desc></g></g><g class="series serie-11 color-11"><g class="dots"><circle cx="12.36153846153846" cy="428.6452991452991" r="2.5" class="dot reactive tooltip-trigger"/><desc class="value">-70</desc><desc class="x top">12.36153846153846</desc><desc class="y top">428.6452991452991</desc></g><g class="dots"><circle cx="321.4" cy="257.49145299145295" r="2.5" class="dot reactive tooltip-trigger"/><desc class="value">-61</desc><desc class="x ">321.4</desc><desc class="y ">257.49145299145295</desc></g></g><g class="series serie-12 color-12"><g class="dots"><circle cx="12.36153846153846" cy="295.525641025641" r="2.5" class="dot reactive tooltip-trigger"/><desc class="value">-63</desc><desc class="x top">12.36153846153846</desc><desc class="y top">295.525641025641</desc></g><g class="dots"><circle cx="321.4" cy="371.594017094017" r="2.5" class="dot reactive tooltip-trigger"/><desc class="value">-67</desc><desc class="x top">321.4</desc><desc class="y top">371.594017094017</desc></g></g><g class="series serie-13 color-13"><g class="dots"><circle cx="12.36153846153846" cy="428.6452991452991" r="2.5" class="dot reactive tooltip-trigger"/><desc class="value">-70</desc><desc class="x top">12.36153846153846</desc><desc class="y top">428.6452991452991</desc></g></g><g class="series serie-14 color-14"><g class="dots"><circle cx="12.36153846153846" cy="86.33760683760676" r="2.5" class="dot reactive tooltip-trigger"/><desc class="value">-52</desc><desc class="x ">12.36153846153846</desc><desc class="y ">86.33760683760676</desc></g></g><g class="series serie-15 color-15"><g class="dots"><circle cx="12.36153846153846" cy="314.542735042735" r="2.5" class="dot reactive tooltip-trigger"/><desc class="value">-64</desc><desc class="x top">12.36153846153846</desc><desc class="y top">314.542735042735</desc></g></g><g class="series serie-16 color-16"><g class="dots"><circle cx="12.36153846153846" cy="523.7307692307692" r="2.5" class="dot reactive tooltip-trigger"/><desc class="value">-75</desc><desc class="x top">12.36153846153846</desc><desc class="y top">523.7307692307692</desc></g></g><g class="series serie-17 color-17"><g class="dots"><circle cx="12.36153846153846" cy="523.7307692307692" r="2.5" class="dot reactive tooltip-trigger"/><desc class="value">-75</desc><desc class="x top">12.36153846153846</desc><desc class="y top">523.7307692307692</desc></g></g><g class="series serie-18 color-18"><g class="dots"><circle cx="12.36153846153846" cy="466.67948717948707" r="2.5" class="dot reactive tooltip-trigger"/><desc class="value">-72</desc><desc class="x top">12.36153846153846</desc><desc class="y top">466.67948717948707</desc></g></g></g><g transform="translate(137, 46)" class="plot text-overlay"><g class="series serie-0 color-0"/><g class="series serie-1 color-1"/><g class="series serie-2 color-2"/><g class="series serie-3 color-3"/><g class="series serie-4 color-4"/><g class="series serie-5 color-5"/><g class="series serie-6 color-6"/><g class="series serie-7 color-7"/><g class="series serie-8 color-8"/><g class="series serie-9 color-9"/><g class="series serie-10 color-10"/><g class="series serie-11 color-11"/><g class="series serie-12 color-12"/><g class="series serie-13 color-13"/><g class="series serie-14 color-14"/><g class="series serie-15 color-15"/><g class="series serie-16 color-16"/><g class="series serie-17 color-17"/><g class="series serie-18 color-18"/></g><g transform="translate(137, 46)" class="plot tooltip-overlay"><g transform="translate(0 0)" style="opacity: 0" class="tooltip"><rect rx="0" ry="0" width="0" height="0" class="tooltip-box"/><g class="text"/></g></g><g transform="translate(10, 56)" class="legends"><g id="activate-serie-0" class="legend reactive activate-serie"><rect x="0.0" y="1.0" width="12" height="12" class="color-0 reactive"/><text x="17.0" y="11.2">6d5fc7ac</text></g><g id="activate-serie-1" class="legend reactive activate-serie"><rect x="0.0" y="22.0" width="12" height="12" class="color-1 reactive"/><text x="17.0" y="32.2">e6987764</text></g><g id="activate-serie-2" class="legend reactive activate-serie"><rect x="0.0" y="43.0" width="12" height="12" class="color-2 reactive"/><text x="17.0" y="53.2">a94ebc8c</text></g><g id="activate-serie-3" class="legend reactive activate-serie"><rect x="0.0" y="64.0" width="12" height="12" class="color-3 reactive"/><text x="17.0" y="74.2">4fe026ea</text></g><g id="activate-serie-4" class="legend reactive activate-serie"><rect x="0.0" y="85.0" width="12" height="12" class="color-4 reactive"/><text x="17.0" y="95.2">a30129e6</text></g><g id="activate-serie-5" class="legend reactive activate-serie"><rect x="0.0" y="106.0" width="12" height="12" class="color-5 reactive"/><text x="17.0" y="116.2">9256ccf4</text></g><g id="activate-serie-6" class="legend reactive activate-serie"><rect x="0.0" y="127.0" width="12" height="12" class="color-6 reactive"/><text x="17.0" y="137.2">9b54ac40</text></g><g id="activate-serie-7" class="legend reactive activate-serie"><rect x="0.0" y="148.0" width="12" height="12" class="color-7 reactive"/><text x="17.0" y="158.2">ed7ace28</text></g><g id="activate-serie-8" class="legend reactive activate-serie"><rect x="0.0" y="169.0" width="12" height="12" class="color-8 reactive"/><text x="17.0" y="179.2">22cd0394</text></g><g id="activate-serie-9" class="legend reactive activate-serie"><rect x="0.0" y="190.0" width="12" height="12" class="color-9 reactive"/><text x="17.0" y="200.2">80154804</text></g><g id="activate-serie-10" class="legend reactive activate-serie"><rect x="0.0" y="211.0" width="12" height="12" class="color-10 reactive"/><text x="17.0" y="221.2">1fc6a334</text></g><g id="activate-serie-11" class="legend reactive activate-serie"><rect x="0.0" y="232.0" width="12" height="12" class="color-11 reactive"/><text x="17.0" y="242.2">b1ee0b5e</text></g><g id="activate-serie-12" class="legend reactive activate-serie"><rect x="0.0" y="253.0" width="12" height="12" class="color-12 reactive"/><text x="17.0" y="263.2">19243e66</text></g><g id="activate-serie-13" class="legend reactive activate-serie"><rect x="0.0" y="274.0" width="12" height="12" class="color-13 reactive"/><text x="17.0" y="284.2">669043ca</text></g><g id="activate-serie-14" class="legend reactive activate-serie"><rect x="0.0" y="295.0" width="12" height="12" class="color-14 reactive"/><text x="17.0" y="305.2">2aa79574</text></g><g id="activate-serie-15" class="legend reactive activate-serie"><rect x="0.0" y="316.0" width="12" height="12" class="color-15 reactive"/><text x="17.0" y="326.2">74456644</text></g><g id="activate-serie-16" class="legend reactive activate-serie"><rect x="0.0" y="337.0" width="12" height="12" class="color-16 reactive"/><text x="17.0" y="347.2">ceb7bb5e</text></g><g id="activate-serie-17" class="legend reactive activate-serie"><rect x="0.0" y="358.0" width="12" height="12" class="color-17 reactive"/><text x="17.0" y="368.2">de6ee6b2</text></g><g id="activate-serie-18" class="legend reactive activate-serie"><rect x="0.0" y="379.0" width="12" height="12" class="color-18 reactive"/><text x="17.0" y="389.2">b820b292</text></g></g><g transform="translate(790, 56)" class="legends"/></g></svg>